<?xml version="1.0" encoding="utf-8"?>
<svg version="1.1" xmlns:xlink="http://www.w3.org/1999/xlink" width="40px" height="40px" viewBox="132 579.5  40 40" xmlns="http://www.w3.org/2000/svg">
  <path d="M 152 580.5  C 162.64 580.5  171 588.86  171 599.5  C 171 610.14  162.64 618.5  152 618.5  C 141.36 618.5  133 610.14  133 599.5  C 133 588.86  141.36 580.5  152 580.5  Z " fill-rule="nonzero" fill="#f2f2f2" stroke="none" />
  <path d="M 152 580.5  C 162.64 580.5  171 588.86  171 599.5  C 171 610.14  162.64 618.5  152 618.5  C 141.36 618.5  133 610.14  133 599.5  C 133 588.86  141.36 580.5  152 580.5  Z " stroke-width="2" stroke="#aaaaaa" fill="none" />
  <path d="M 152 609.5  C 146.4 609.5  142 605.1  142 599.5  C 142 593.9  146.4 589.5  152 589.5  C 157.6 589.5  162 593.9  162 599.5  C 162 605.1  157.6 609.5  152 609.5  " fill-rule="nonzero" fill="#aaaaaa" stroke="none" />
</svg>