<?xml version="1.0" encoding="utf-8"?>
<svg version="1.1" xmlns:xlink="http://www.w3.org/1999/xlink" width="40px" height="40px" viewBox="132 405.5  40 40" xmlns="http://www.w3.org/2000/svg">
  <path d="M 152 406.5  C 162.64 406.5  171 414.86  171 425.5  C 171 436.14  162.64 444.5  152 444.5  C 141.36 444.5  133 436.14  133 425.5  C 133 414.86  141.36 406.5  152 406.5  Z " fill-rule="nonzero" fill="#f2f2f2" stroke="none" />
  <path d="M 152 406.5  C 162.64 406.5  171 414.86  171 425.5  C 171 436.14  162.64 444.5  152 444.5  C 141.36 444.5  133 436.14  133 425.5  C 133 414.86  141.36 406.5  152 406.5  Z " stroke-width="2" stroke="#aaaaaa" fill="none" />
  <path d="M 152 435.5  C 146.4 435.5  142 431.1  142 425.5  C 142 419.9  146.4 415.5  152 415.5  C 157.6 415.5  162 419.9  162 425.5  C 162 431.1  157.6 435.5  152 435.5  " fill-rule="nonzero" fill="#aaaaaa" stroke="none" />
</svg>