<?xml version="1.0" encoding="utf-8"?>
<svg version="1.1" xmlns:xlink="http://www.w3.org/1999/xlink" width="40px" height="40px" viewBox="132 907.5  40 40" xmlns="http://www.w3.org/2000/svg">
  <path d="M 152 908.5  C 162.64 908.5  171 916.86  171 927.5  C 171 938.14  162.64 946.5  152 946.5  C 141.36 946.5  133 938.14  133 927.5  C 133 916.86  141.36 908.5  152 908.5  Z " fill-rule="nonzero" fill="#f2f2f2" stroke="none" />
  <path d="M 152 908.5  C 162.64 908.5  171 916.86  171 927.5  C 171 938.14  162.64 946.5  152 946.5  C 141.36 946.5  133 938.14  133 927.5  C 133 916.86  141.36 908.5  152 908.5  Z " stroke-width="2" stroke="#aaaaaa" fill="none" />
  <path d="M 152 937.5  C 146.4 937.5  142 933.1  142 927.5  C 142 921.9  146.4 917.5  152 917.5  C 157.6 917.5  162 921.9  162 927.5  C 162 933.1  157.6 937.5  152 937.5  " fill-rule="nonzero" fill="#aaaaaa" stroke="none" />
</svg>