<?xml version="1.0" encoding="utf-8"?>
<svg version="1.1" xmlns:xlink="http://www.w3.org/1999/xlink" width="40px" height="40px" viewBox="132 556.5  40 40" xmlns="http://www.w3.org/2000/svg">
  <path d="M 152 557.5  C 162.64 557.5  171 565.86  171 576.5  C 171 587.14  162.64 595.5  152 595.5  C 141.36 595.5  133 587.14  133 576.5  C 133 565.86  141.36 557.5  152 557.5  Z " fill-rule="nonzero" fill="#f2f2f2" stroke="none" />
  <path d="M 152 557.5  C 162.64 557.5  171 565.86  171 576.5  C 171 587.14  162.64 595.5  152 595.5  C 141.36 595.5  133 587.14  133 576.5  C 133 565.86  141.36 557.5  152 557.5  Z " stroke-width="2" stroke="#aaaaaa" fill="none" />
  <path d="M 152 586.5  C 146.4 586.5  142 582.1  142 576.5  C 142 570.9  146.4 566.5  152 566.5  C 157.6 566.5  162 570.9  162 576.5  C 162 582.1  157.6 586.5  152 586.5  " fill-rule="nonzero" fill="#aaaaaa" stroke="none" />
</svg>