<?xml version="1.0" encoding="utf-8"?>
<svg version="1.1" xmlns:xlink="http://www.w3.org/1999/xlink" width="40px" height="40px" viewBox="132 676.5  40 40" xmlns="http://www.w3.org/2000/svg">
  <path d="M 152 677.5  C 162.64 677.5  171 685.86  171 696.5  C 171 707.14  162.64 715.5  152 715.5  C 141.36 715.5  133 707.14  133 696.5  C 133 685.86  141.36 677.5  152 677.5  Z " fill-rule="nonzero" fill="#f2f2f2" stroke="none" />
  <path d="M 152 677.5  C 162.64 677.5  171 685.86  171 696.5  C 171 707.14  162.64 715.5  152 715.5  C 141.36 715.5  133 707.14  133 696.5  C 133 685.86  141.36 677.5  152 677.5  Z " stroke-width="2" stroke="#aaaaaa" fill="none" />
  <path d="M 152 706.5  C 146.4 706.5  142 702.1  142 696.5  C 142 690.9  146.4 686.5  152 686.5  C 157.6 686.5  162 690.9  162 696.5  C 162 702.1  157.6 706.5  152 706.5  " fill-rule="nonzero" fill="#aaaaaa" stroke="none" />
</svg>