<?xml version="1.0" encoding="utf-8"?>
<svg version="1.1" xmlns:xlink="http://www.w3.org/1999/xlink" width="40px" height="40px" viewBox="132 1028.5  40 40" xmlns="http://www.w3.org/2000/svg">
  <path d="M 152 1029.5  C 162.64 1029.5  171 1037.86  171 1048.5  C 171 1059.14  162.64 1067.5  152 1067.5  C 141.36 1067.5  133 1059.14  133 1048.5  C 133 1037.86  141.36 1029.5  152 1029.5  Z " fill-rule="nonzero" fill="#f2f2f2" stroke="none" />
  <path d="M 152 1029.5  C 162.64 1029.5  171 1037.86  171 1048.5  C 171 1059.14  162.64 1067.5  152 1067.5  C 141.36 1067.5  133 1059.14  133 1048.5  C 133 1037.86  141.36 1029.5  152 1029.5  Z " stroke-width="2" stroke="#aaaaaa" fill="none" />
  <path d="M 152 1058.5  C 146.4 1058.5  142 1054.1  142 1048.5  C 142 1042.9  146.4 1038.5  152 1038.5  C 157.6 1038.5  162 1042.9  162 1048.5  C 162 1054.1  157.6 1058.5  152 1058.5  " fill-rule="nonzero" fill="#aaaaaa" stroke="none" />
</svg>