<?xml version="1.0" encoding="utf-8"?>
<svg version="1.1" xmlns:xlink="http://www.w3.org/1999/xlink" width="40px" height="40px" viewBox="132 1130.5  40 40" xmlns="http://www.w3.org/2000/svg">
  <path d="M 152 1131.5  C 162.64 1131.5  171 1139.86  171 1150.5  C 171 1161.14  162.64 1169.5  152 1169.5  C 141.36 1169.5  133 1161.14  133 1150.5  C 133 1139.86  141.36 1131.5  152 1131.5  Z " fill-rule="nonzero" fill="#f2f2f2" stroke="none" />
  <path d="M 152 1131.5  C 162.64 1131.5  171 1139.86  171 1150.5  C 171 1161.14  162.64 1169.5  152 1169.5  C 141.36 1169.5  133 1161.14  133 1150.5  C 133 1139.86  141.36 1131.5  152 1131.5  Z " stroke-width="2" stroke="#aaaaaa" fill="none" />
  <path d="M 152 1160.5  C 146.4 1160.5  142 1156.1  142 1150.5  C 142 1144.9  146.4 1140.5  152 1140.5  C 157.6 1140.5  162 1144.9  162 1150.5  C 162 1156.1  157.6 1160.5  152 1160.5  " fill-rule="nonzero" fill="#aaaaaa" stroke="none" />
</svg>