<?xml version="1.0" encoding="utf-8"?>
<svg version="1.1" xmlns:xlink="http://www.w3.org/1999/xlink" width="40px" height="40px" viewBox="137 578.5  40 40" xmlns="http://www.w3.org/2000/svg">
  <path d="M 157 579.5  C 167.64 579.5  176 587.86  176 598.5  C 176 609.14  167.64 617.5  157 617.5  C 146.36 617.5  138 609.14  138 598.5  C 138 587.86  146.36 579.5  157 579.5  Z " fill-rule="nonzero" fill="#f2f2f2" stroke="none" />
  <path d="M 157 579.5  C 167.64 579.5  176 587.86  176 598.5  C 176 609.14  167.64 617.5  157 617.5  C 146.36 617.5  138 609.14  138 598.5  C 138 587.86  146.36 579.5  157 579.5  Z " stroke-width="2" stroke="#aaaaaa" fill="none" />
  <path d="M 157 608.5  C 151.4 608.5  147 604.1  147 598.5  C 147 592.9  151.4 588.5  157 588.5  C 162.6 588.5  167 592.9  167 598.5  C 167 604.1  162.6 608.5  157 608.5  " fill-rule="nonzero" fill="#aaaaaa" stroke="none" />
</svg>