<?xml version="1.0" encoding="utf-8"?>
<svg version="1.1" xmlns:xlink="http://www.w3.org/1999/xlink" width="40px" height="40px" viewBox="130 696.5  40 40" xmlns="http://www.w3.org/2000/svg">
  <path d="M 150 697.5  C 160.64 697.5  169 705.86  169 716.5  C 169 727.14  160.64 735.5  150 735.5  C 139.36 735.5  131 727.14  131 716.5  C 131 705.86  139.36 697.5  150 697.5  Z " fill-rule="nonzero" fill="#f2f2f2" stroke="none" />
  <path d="M 150 697.5  C 160.64 697.5  169 705.86  169 716.5  C 169 727.14  160.64 735.5  150 735.5  C 139.36 735.5  131 727.14  131 716.5  C 131 705.86  139.36 697.5  150 697.5  Z " stroke-width="2" stroke="#aaaaaa" fill="none" />
  <path d="M 150 726.5  C 144.4 726.5  140 722.1  140 716.5  C 140 710.9  144.4 706.5  150 706.5  C 155.6 706.5  160 710.9  160 716.5  C 160 722.1  155.6 726.5  150 726.5  " fill-rule="nonzero" fill="#aaaaaa" stroke="none" />
</svg>