<?xml version="1.0" encoding="utf-8"?>
<svg version="1.1" xmlns:xlink="http://www.w3.org/1999/xlink" width="40px" height="40px" viewBox="130 813.5  40 40" xmlns="http://www.w3.org/2000/svg">
  <path d="M 150 814.5  C 160.64 814.5  169 822.86  169 833.5  C 169 844.14  160.64 852.5  150 852.5  C 139.36 852.5  131 844.14  131 833.5  C 131 822.86  139.36 814.5  150 814.5  Z " fill-rule="nonzero" fill="#f2f2f2" stroke="none" />
  <path d="M 150 814.5  C 160.64 814.5  169 822.86  169 833.5  C 169 844.14  160.64 852.5  150 852.5  C 139.36 852.5  131 844.14  131 833.5  C 131 822.86  139.36 814.5  150 814.5  Z " stroke-width="2" stroke="#aaaaaa" fill="none" />
  <path d="M 150 843.5  C 144.4 843.5  140 839.1  140 833.5  C 140 827.9  144.4 823.5  150 823.5  C 155.6 823.5  160 827.9  160 833.5  C 160 839.1  155.6 843.5  150 843.5  " fill-rule="nonzero" fill="#aaaaaa" stroke="none" />
</svg>