<?xml version="1.0" encoding="utf-8"?>
<svg version="1.1" xmlns:xlink="http://www.w3.org/1999/xlink" width="40px" height="40px" viewBox="130 931.5  40 40" xmlns="http://www.w3.org/2000/svg">
  <path d="M 150 932.5  C 160.64 932.5  169 940.86  169 951.5  C 169 962.14  160.64 970.5  150 970.5  C 139.36 970.5  131 962.14  131 951.5  C 131 940.86  139.36 932.5  150 932.5  Z " fill-rule="nonzero" fill="#f2f2f2" stroke="none" />
  <path d="M 150 932.5  C 160.64 932.5  169 940.86  169 951.5  C 169 962.14  160.64 970.5  150 970.5  C 139.36 970.5  131 962.14  131 951.5  C 131 940.86  139.36 932.5  150 932.5  Z " stroke-width="2" stroke="#aaaaaa" fill="none" />
  <path d="M 150 961.5  C 144.4 961.5  140 957.1  140 951.5  C 140 945.9  144.4 941.5  150 941.5  C 155.6 941.5  160 945.9  160 951.5  C 160 957.1  155.6 961.5  150 961.5  " fill-rule="nonzero" fill="#aaaaaa" stroke="none" />
</svg>