<?xml version="1.0" encoding="utf-8"?>
<svg version="1.1" xmlns:xlink="http://www.w3.org/1999/xlink" width="40px" height="40px" viewBox="130 1048.5  40 40" xmlns="http://www.w3.org/2000/svg">
  <path d="M 150 1049.5  C 160.64 1049.5  169 1057.86  169 1068.5  C 169 1079.14  160.64 1087.5  150 1087.5  C 139.36 1087.5  131 1079.14  131 1068.5  C 131 1057.86  139.36 1049.5  150 1049.5  Z " fill-rule="nonzero" fill="#f2f2f2" stroke="none" />
  <path d="M 150 1049.5  C 160.64 1049.5  169 1057.86  169 1068.5  C 169 1079.14  160.64 1087.5  150 1087.5  C 139.36 1087.5  131 1079.14  131 1068.5  C 131 1057.86  139.36 1049.5  150 1049.5  Z " stroke-width="2" stroke="#aaaaaa" fill="none" />
  <path d="M 150 1078.5  C 144.4 1078.5  140 1074.1  140 1068.5  C 140 1062.9  144.4 1058.5  150 1058.5  C 155.6 1058.5  160 1062.9  160 1068.5  C 160 1074.1  155.6 1078.5  150 1078.5  " fill-rule="nonzero" fill="#aaaaaa" stroke="none" />
</svg>