<?xml version="1.0" encoding="utf-8"?>
<svg version="1.1" xmlns:xlink="http://www.w3.org/1999/xlink" width="40px" height="40px" viewBox="132 578.5  40 40" xmlns="http://www.w3.org/2000/svg">
  <path d="M 152 579.5  C 162.64 579.5  171 587.86  171 598.5  C 171 609.14  162.64 617.5  152 617.5  C 141.36 617.5  133 609.14  133 598.5  C 133 587.86  141.36 579.5  152 579.5  Z " fill-rule="nonzero" fill="#f2f2f2" stroke="none" />
  <path d="M 152 579.5  C 162.64 579.5  171 587.86  171 598.5  C 171 609.14  162.64 617.5  152 617.5  C 141.36 617.5  133 609.14  133 598.5  C 133 587.86  141.36 579.5  152 579.5  Z " stroke-width="2" stroke="#aaaaaa" fill="none" />
  <path d="M 152 608.5  C 146.4 608.5  142 604.1  142 598.5  C 142 592.9  146.4 588.5  152 588.5  C 157.6 588.5  162 592.9  162 598.5  C 162 604.1  157.6 608.5  152 608.5  " fill-rule="nonzero" fill="#aaaaaa" stroke="none" />
</svg>