<?xml version="1.0" encoding="utf-8"?>
<svg version="1.1" xmlns:xlink="http://www.w3.org/1999/xlink" width="40px" height="40px" viewBox="132 696.5  40 40" xmlns="http://www.w3.org/2000/svg">
  <path d="M 152 697.5  C 162.64 697.5  171 705.86  171 716.5  C 171 727.14  162.64 735.5  152 735.5  C 141.36 735.5  133 727.14  133 716.5  C 133 705.86  141.36 697.5  152 697.5  Z " fill-rule="nonzero" fill="#f2f2f2" stroke="none" />
  <path d="M 152 697.5  C 162.64 697.5  171 705.86  171 716.5  C 171 727.14  162.64 735.5  152 735.5  C 141.36 735.5  133 727.14  133 716.5  C 133 705.86  141.36 697.5  152 697.5  Z " stroke-width="2" stroke="#aaaaaa" fill="none" />
  <path d="M 152 726.5  C 146.4 726.5  142 722.1  142 716.5  C 142 710.9  146.4 706.5  152 706.5  C 157.6 706.5  162 710.9  162 716.5  C 162 722.1  157.6 726.5  152 726.5  " fill-rule="nonzero" fill="#aaaaaa" stroke="none" />
</svg>