<?xml version="1.0" encoding="utf-8"?>
<svg version="1.1" xmlns:xlink="http://www.w3.org/1999/xlink" width="40px" height="40px" viewBox="132 916.5  40 40" xmlns="http://www.w3.org/2000/svg">
  <path d="M 152 917.5  C 162.64 917.5  171 925.86  171 936.5  C 171 947.14  162.64 955.5  152 955.5  C 141.36 955.5  133 947.14  133 936.5  C 133 925.86  141.36 917.5  152 917.5  Z " fill-rule="nonzero" fill="#f2f2f2" stroke="none" />
  <path d="M 152 917.5  C 162.64 917.5  171 925.86  171 936.5  C 171 947.14  162.64 955.5  152 955.5  C 141.36 955.5  133 947.14  133 936.5  C 133 925.86  141.36 917.5  152 917.5  Z " stroke-width="2" stroke="#aaaaaa" fill="none" />
  <path d="M 152 946.5  C 146.4 946.5  142 942.1  142 936.5  C 142 930.9  146.4 926.5  152 926.5  C 157.6 926.5  162 930.9  162 936.5  C 162 942.1  157.6 946.5  152 946.5  " fill-rule="nonzero" fill="#aaaaaa" stroke="none" />
</svg>