<?xml version="1.0" encoding="utf-8"?>
<svg version="1.1" xmlns:xlink="http://www.w3.org/1999/xlink" width="40px" height="40px" viewBox="132 1150.5  40 40" xmlns="http://www.w3.org/2000/svg">
  <path d="M 152 1151.5  C 162.64 1151.5  171 1159.86  171 1170.5  C 171 1181.14  162.64 1189.5  152 1189.5  C 141.36 1189.5  133 1181.14  133 1170.5  C 133 1159.86  141.36 1151.5  152 1151.5  Z " fill-rule="nonzero" fill="#f2f2f2" stroke="none" />
  <path d="M 152 1151.5  C 162.64 1151.5  171 1159.86  171 1170.5  C 171 1181.14  162.64 1189.5  152 1189.5  C 141.36 1189.5  133 1181.14  133 1170.5  C 133 1159.86  141.36 1151.5  152 1151.5  Z " stroke-width="2" stroke="#aaaaaa" fill="none" />
  <path d="M 152 1180.5  C 146.4 1180.5  142 1176.1  142 1170.5  C 142 1164.9  146.4 1160.5  152 1160.5  C 157.6 1160.5  162 1164.9  162 1170.5  C 162 1176.1  157.6 1180.5  152 1180.5  " fill-rule="nonzero" fill="#aaaaaa" stroke="none" />
</svg>