<?xml version="1.0" encoding="utf-8"?>
<svg version="1.1" xmlns:xlink="http://www.w3.org/1999/xlink" width="40px" height="40px" viewBox="132 1048.5  40 40" xmlns="http://www.w3.org/2000/svg">
  <path d="M 152 1049.5  C 162.64 1049.5  171 1057.86  171 1068.5  C 171 1079.14  162.64 1087.5  152 1087.5  C 141.36 1087.5  133 1079.14  133 1068.5  C 133 1057.86  141.36 1049.5  152 1049.5  Z " fill-rule="nonzero" fill="#f2f2f2" stroke="none" />
  <path d="M 152 1049.5  C 162.64 1049.5  171 1057.86  171 1068.5  C 171 1079.14  162.64 1087.5  152 1087.5  C 141.36 1087.5  133 1079.14  133 1068.5  C 133 1057.86  141.36 1049.5  152 1049.5  Z " stroke-width="2" stroke="#aaaaaa" fill="none" />
  <path d="M 152 1078.5  C 146.4 1078.5  142 1074.1  142 1068.5  C 142 1062.9  146.4 1058.5  152 1058.5  C 157.6 1058.5  162 1062.9  162 1068.5  C 162 1074.1  157.6 1078.5  152 1078.5  " fill-rule="nonzero" fill="#aaaaaa" stroke="none" />
</svg>