<?xml version="1.0" encoding="utf-8"?>
<svg version="1.1" xmlns:xlink="http://www.w3.org/1999/xlink" width="40px" height="40px" viewBox="137 814.5  40 40" xmlns="http://www.w3.org/2000/svg">
  <path d="M 157 815.5  C 167.64 815.5  176 823.86  176 834.5  C 176 845.14  167.64 853.5  157 853.5  C 146.36 853.5  138 845.14  138 834.5  C 138 823.86  146.36 815.5  157 815.5  Z " fill-rule="nonzero" fill="#f2f2f2" stroke="none" />
  <path d="M 157 815.5  C 167.64 815.5  176 823.86  176 834.5  C 176 845.14  167.64 853.5  157 853.5  C 146.36 853.5  138 845.14  138 834.5  C 138 823.86  146.36 815.5  157 815.5  Z " stroke-width="2" stroke="#aaaaaa" fill="none" />
  <path d="M 157 844.5  C 151.4 844.5  147 840.1  147 834.5  C 147 828.9  151.4 824.5  157 824.5  C 162.6 824.5  167 828.9  167 834.5  C 167 840.1  162.6 844.5  157 844.5  " fill-rule="nonzero" fill="#aaaaaa" stroke="none" />
</svg>