<?xml version="1.0" encoding="utf-8"?>
<svg version="1.1" xmlns:xlink="http://www.w3.org/1999/xlink" width="40px" height="40px" viewBox="132 682.5  40 40" xmlns="http://www.w3.org/2000/svg">
  <path d="M 152 683.5  C 162.64 683.5  171 691.86  171 702.5  C 171 713.14  162.64 721.5  152 721.5  C 141.36 721.5  133 713.14  133 702.5  C 133 691.86  141.36 683.5  152 683.5  Z " fill-rule="nonzero" fill="#f2f2f2" stroke="none" />
  <path d="M 152 683.5  C 162.64 683.5  171 691.86  171 702.5  C 171 713.14  162.64 721.5  152 721.5  C 141.36 721.5  133 713.14  133 702.5  C 133 691.86  141.36 683.5  152 683.5  Z " stroke-width="2" stroke="#aaaaaa" fill="none" />
  <path d="M 152 712.5  C 146.4 712.5  142 708.1  142 702.5  C 142 696.9  146.4 692.5  152 692.5  C 157.6 692.5  162 696.9  162 702.5  C 162 708.1  157.6 712.5  152 712.5  " fill-rule="nonzero" fill="#aaaaaa" stroke="none" />
</svg>