<?xml version="1.0" encoding="utf-8"?>
<svg version="1.1" xmlns:xlink="http://www.w3.org/1999/xlink" width="40px" height="40px" viewBox="137 932.5  40 40" xmlns="http://www.w3.org/2000/svg">
  <path d="M 157 933.5  C 167.64 933.5  176 941.86  176 952.5  C 176 963.14  167.64 971.5  157 971.5  C 146.36 971.5  138 963.14  138 952.5  C 138 941.86  146.36 933.5  157 933.5  Z " fill-rule="nonzero" fill="#f2f2f2" stroke="none" />
  <path d="M 157 933.5  C 167.64 933.5  176 941.86  176 952.5  C 176 963.14  167.64 971.5  157 971.5  C 146.36 971.5  138 963.14  138 952.5  C 138 941.86  146.36 933.5  157 933.5  Z " stroke-width="2" stroke="#aaaaaa" fill="none" />
  <path d="M 157 962.5  C 151.4 962.5  147 958.1  147 952.5  C 147 946.9  151.4 942.5  157 942.5  C 162.6 942.5  167 946.9  167 952.5  C 167 958.1  162.6 962.5  157 962.5  " fill-rule="nonzero" fill="#aaaaaa" stroke="none" />
</svg>