<?xml version="1.0" encoding="utf-8"?>
<svg version="1.1" xmlns:xlink="http://www.w3.org/1999/xlink" width="40px" height="40px" viewBox="130 1049.5  40 40" xmlns="http://www.w3.org/2000/svg">
  <path d="M 150 1050.5  C 160.64 1050.5  169 1058.86  169 1069.5  C 169 1080.14  160.64 1088.5  150 1088.5  C 139.36 1088.5  131 1080.14  131 1069.5  C 131 1058.86  139.36 1050.5  150 1050.5  Z " fill-rule="nonzero" fill="#f2f2f2" stroke="none" />
  <path d="M 150 1050.5  C 160.64 1050.5  169 1058.86  169 1069.5  C 169 1080.14  160.64 1088.5  150 1088.5  C 139.36 1088.5  131 1080.14  131 1069.5  C 131 1058.86  139.36 1050.5  150 1050.5  Z " stroke-width="2" stroke="#aaaaaa" fill="none" />
  <path d="M 150 1079.5  C 144.4 1079.5  140 1075.1  140 1069.5  C 140 1063.9  144.4 1059.5  150 1059.5  C 155.6 1059.5  160 1063.9  160 1069.5  C 160 1075.1  155.6 1079.5  150 1079.5  " fill-rule="nonzero" fill="#aaaaaa" stroke="none" />
</svg>