<?xml version="1.0" encoding="utf-8"?>
<svg version="1.1" xmlns:xlink="http://www.w3.org/1999/xlink" width="40px" height="40px" viewBox="130 1167.5  40 40" xmlns="http://www.w3.org/2000/svg">
  <path d="M 150 1168.5  C 160.64 1168.5  169 1176.86  169 1187.5  C 169 1198.14  160.64 1206.5  150 1206.5  C 139.36 1206.5  131 1198.14  131 1187.5  C 131 1176.86  139.36 1168.5  150 1168.5  Z " fill-rule="nonzero" fill="#f2f2f2" stroke="none" />
  <path d="M 150 1168.5  C 160.64 1168.5  169 1176.86  169 1187.5  C 169 1198.14  160.64 1206.5  150 1206.5  C 139.36 1206.5  131 1198.14  131 1187.5  C 131 1176.86  139.36 1168.5  150 1168.5  Z " stroke-width="2" stroke="#aaaaaa" fill="none" />
  <path d="M 150 1197.5  C 144.4 1197.5  140 1193.1  140 1187.5  C 140 1181.9  144.4 1177.5  150 1177.5  C 155.6 1177.5  160 1181.9  160 1187.5  C 160 1193.1  155.6 1197.5  150 1197.5  " fill-rule="nonzero" fill="#aaaaaa" stroke="none" />
</svg>