<?xml version="1.0" encoding="utf-8"?>
<svg version="1.1" xmlns:xlink="http://www.w3.org/1999/xlink" width="40px" height="40px" viewBox="132 791.5  40 40" xmlns="http://www.w3.org/2000/svg">
  <path d="M 152 792.5  C 162.64 792.5  171 800.86  171 811.5  C 171 822.14  162.64 830.5  152 830.5  C 141.36 830.5  133 822.14  133 811.5  C 133 800.86  141.36 792.5  152 792.5  Z " fill-rule="nonzero" fill="#f2f2f2" stroke="none" />
  <path d="M 152 792.5  C 162.64 792.5  171 800.86  171 811.5  C 171 822.14  162.64 830.5  152 830.5  C 141.36 830.5  133 822.14  133 811.5  C 133 800.86  141.36 792.5  152 792.5  Z " stroke-width="2" stroke="#aaaaaa" fill="none" />
  <path d="M 152 821.5  C 146.4 821.5  142 817.1  142 811.5  C 142 805.9  146.4 801.5  152 801.5  C 157.6 801.5  162 805.9  162 811.5  C 162 817.1  157.6 821.5  152 821.5  " fill-rule="nonzero" fill="#aaaaaa" stroke="none" />
</svg>