<?xml version="1.0" encoding="utf-8"?>
<svg version="1.1" xmlns:xlink="http://www.w3.org/1999/xlink" width="40px" height="40px" viewBox="132 909.5  40 40" xmlns="http://www.w3.org/2000/svg">
  <path d="M 152 910.5  C 162.64 910.5  171 918.86  171 929.5  C 171 940.14  162.64 948.5  152 948.5  C 141.36 948.5  133 940.14  133 929.5  C 133 918.86  141.36 910.5  152 910.5  Z " fill-rule="nonzero" fill="#f2f2f2" stroke="none" />
  <path d="M 152 910.5  C 162.64 910.5  171 918.86  171 929.5  C 171 940.14  162.64 948.5  152 948.5  C 141.36 948.5  133 940.14  133 929.5  C 133 918.86  141.36 910.5  152 910.5  Z " stroke-width="2" stroke="#aaaaaa" fill="none" />
  <path d="M 152 939.5  C 146.4 939.5  142 935.1  142 929.5  C 142 923.9  146.4 919.5  152 919.5  C 157.6 919.5  162 923.9  162 929.5  C 162 935.1  157.6 939.5  152 939.5  " fill-rule="nonzero" fill="#aaaaaa" stroke="none" />
</svg>