<?xml version="1.0" encoding="utf-8"?>
<svg version="1.1" xmlns:xlink="http://www.w3.org/1999/xlink" width="40px" height="40px" viewBox="130 1284.5  40 40" xmlns="http://www.w3.org/2000/svg">
  <path d="M 150 1285.5  C 160.64 1285.5  169 1293.86  169 1304.5  C 169 1315.14  160.64 1323.5  150 1323.5  C 139.36 1323.5  131 1315.14  131 1304.5  C 131 1293.86  139.36 1285.5  150 1285.5  Z " fill-rule="nonzero" fill="#f2f2f2" stroke="none" />
  <path d="M 150 1285.5  C 160.64 1285.5  169 1293.86  169 1304.5  C 169 1315.14  160.64 1323.5  150 1323.5  C 139.36 1323.5  131 1315.14  131 1304.5  C 131 1293.86  139.36 1285.5  150 1285.5  Z " stroke-width="2" stroke="#aaaaaa" fill="none" />
  <path d="M 150 1314.5  C 144.4 1314.5  140 1310.1  140 1304.5  C 140 1298.9  144.4 1294.5  150 1294.5  C 155.6 1294.5  160 1298.9  160 1304.5  C 160 1310.1  155.6 1314.5  150 1314.5  " fill-rule="nonzero" fill="#aaaaaa" stroke="none" />
</svg>