<?xml version="1.0" encoding="utf-8"?>
<svg version="1.1" xmlns:xlink="http://www.w3.org/1999/xlink" width="40px" height="40px" viewBox="137 1284.5  40 40" xmlns="http://www.w3.org/2000/svg">
  <path d="M 157 1285.5  C 167.64 1285.5  176 1293.86  176 1304.5  C 176 1315.14  167.64 1323.5  157 1323.5  C 146.36 1323.5  138 1315.14  138 1304.5  C 138 1293.86  146.36 1285.5  157 1285.5  Z " fill-rule="nonzero" fill="#f2f2f2" stroke="none" />
  <path d="M 157 1285.5  C 167.64 1285.5  176 1293.86  176 1304.5  C 176 1315.14  167.64 1323.5  157 1323.5  C 146.36 1323.5  138 1315.14  138 1304.5  C 138 1293.86  146.36 1285.5  157 1285.5  Z " stroke-width="2" stroke="#aaaaaa" fill="none" />
  <path d="M 157 1314.5  C 151.4 1314.5  147 1310.1  147 1304.5  C 147 1298.9  151.4 1294.5  157 1294.5  C 162.6 1294.5  167 1298.9  167 1304.5  C 167 1310.1  162.6 1314.5  157 1314.5  " fill-rule="nonzero" fill="#aaaaaa" stroke="none" />
</svg>