<?xml version="1.0" encoding="utf-8"?>
<svg version="1.1" xmlns:xlink="http://www.w3.org/1999/xlink" width="40px" height="40px" viewBox="132 814.5  40 40" xmlns="http://www.w3.org/2000/svg">
  <path d="M 152 815.5  C 162.64 815.5  171 823.86  171 834.5  C 171 845.14  162.64 853.5  152 853.5  C 141.36 853.5  133 845.14  133 834.5  C 133 823.86  141.36 815.5  152 815.5  Z " fill-rule="nonzero" fill="#f2f2f2" stroke="none" />
  <path d="M 152 815.5  C 162.64 815.5  171 823.86  171 834.5  C 171 845.14  162.64 853.5  152 853.5  C 141.36 853.5  133 845.14  133 834.5  C 133 823.86  141.36 815.5  152 815.5  Z " stroke-width="2" stroke="#aaaaaa" fill="none" />
  <path d="M 152 844.5  C 146.4 844.5  142 840.1  142 834.5  C 142 828.9  146.4 824.5  152 824.5  C 157.6 824.5  162 828.9  162 834.5  C 162 840.1  157.6 844.5  152 844.5  " fill-rule="nonzero" fill="#aaaaaa" stroke="none" />
</svg>