<?xml version="1.0" encoding="utf-8"?>
<svg version="1.1" xmlns:xlink="http://www.w3.org/1999/xlink" width="40px" height="40px" viewBox="132 1035.5  40 40" xmlns="http://www.w3.org/2000/svg">
  <path d="M 152 1036.5  C 162.64 1036.5  171 1044.86  171 1055.5  C 171 1066.14  162.64 1074.5  152 1074.5  C 141.36 1074.5  133 1066.14  133 1055.5  C 133 1044.86  141.36 1036.5  152 1036.5  Z " fill-rule="nonzero" fill="#f2f2f2" stroke="none" />
  <path d="M 152 1036.5  C 162.64 1036.5  171 1044.86  171 1055.5  C 171 1066.14  162.64 1074.5  152 1074.5  C 141.36 1074.5  133 1066.14  133 1055.5  C 133 1044.86  141.36 1036.5  152 1036.5  Z " stroke-width="2" stroke="#aaaaaa" fill="none" />
  <path d="M 152 1065.5  C 146.4 1065.5  142 1061.1  142 1055.5  C 142 1049.9  146.4 1045.5  152 1045.5  C 157.6 1045.5  162 1049.9  162 1055.5  C 162 1061.1  157.6 1065.5  152 1065.5  " fill-rule="nonzero" fill="#aaaaaa" stroke="none" />
</svg>