<?xml version="1.0" encoding="utf-8"?>
<svg version="1.1" xmlns:xlink="http://www.w3.org/1999/xlink" width="40px" height="40px" viewBox="132 932.5  40 40" xmlns="http://www.w3.org/2000/svg">
  <path d="M 152 933.5  C 162.64 933.5  171 941.86  171 952.5  C 171 963.14  162.64 971.5  152 971.5  C 141.36 971.5  133 963.14  133 952.5  C 133 941.86  141.36 933.5  152 933.5  Z " fill-rule="nonzero" fill="#f2f2f2" stroke="none" />
  <path d="M 152 933.5  C 162.64 933.5  171 941.86  171 952.5  C 171 963.14  162.64 971.5  152 971.5  C 141.36 971.5  133 963.14  133 952.5  C 133 941.86  141.36 933.5  152 933.5  Z " stroke-width="2" stroke="#aaaaaa" fill="none" />
  <path d="M 152 962.5  C 146.4 962.5  142 958.1  142 952.5  C 142 946.9  146.4 942.5  152 942.5  C 157.6 942.5  162 946.9  162 952.5  C 162 958.1  157.6 962.5  152 962.5  " fill-rule="nonzero" fill="#aaaaaa" stroke="none" />
</svg>