<?xml version="1.0" encoding="utf-8"?>
<svg version="1.1" xmlns:xlink="http://www.w3.org/1999/xlink" width="40px" height="40px" viewBox="132 1049.5  40 40" xmlns="http://www.w3.org/2000/svg">
  <path d="M 152 1050.5  C 162.64 1050.5  171 1058.86  171 1069.5  C 171 1080.14  162.64 1088.5  152 1088.5  C 141.36 1088.5  133 1080.14  133 1069.5  C 133 1058.86  141.36 1050.5  152 1050.5  Z " fill-rule="nonzero" fill="#f2f2f2" stroke="none" />
  <path d="M 152 1050.5  C 162.64 1050.5  171 1058.86  171 1069.5  C 171 1080.14  162.64 1088.5  152 1088.5  C 141.36 1088.5  133 1080.14  133 1069.5  C 133 1058.86  141.36 1050.5  152 1050.5  Z " stroke-width="2" stroke="#aaaaaa" fill="none" />
  <path d="M 152 1079.5  C 146.4 1079.5  142 1075.1  142 1069.5  C 142 1063.9  146.4 1059.5  152 1059.5  C 157.6 1059.5  162 1063.9  162 1069.5  C 162 1075.1  157.6 1079.5  152 1079.5  " fill-rule="nonzero" fill="#aaaaaa" stroke="none" />
</svg>