<?xml version="1.0" encoding="utf-8"?>
<svg version="1.1" xmlns:xlink="http://www.w3.org/1999/xlink" width="40px" height="40px" viewBox="132 1269.5  40 40" xmlns="http://www.w3.org/2000/svg">
  <path d="M 152 1270.5  C 162.64 1270.5  171 1278.86  171 1289.5  C 171 1300.14  162.64 1308.5  152 1308.5  C 141.36 1308.5  133 1300.14  133 1289.5  C 133 1278.86  141.36 1270.5  152 1270.5  Z " fill-rule="nonzero" fill="#f2f2f2" stroke="none" />
  <path d="M 152 1270.5  C 162.64 1270.5  171 1278.86  171 1289.5  C 171 1300.14  162.64 1308.5  152 1308.5  C 141.36 1308.5  133 1300.14  133 1289.5  C 133 1278.86  141.36 1270.5  152 1270.5  Z " stroke-width="2" stroke="#aaaaaa" fill="none" />
  <path d="M 152 1299.5  C 146.4 1299.5  142 1295.1  142 1289.5  C 142 1283.9  146.4 1279.5  152 1279.5  C 157.6 1279.5  162 1283.9  162 1289.5  C 162 1295.1  157.6 1299.5  152 1299.5  " fill-rule="nonzero" fill="#aaaaaa" stroke="none" />
</svg>