<?xml version="1.0" encoding="utf-8"?>
<svg version="1.1" xmlns:xlink="http://www.w3.org/1999/xlink" width="40px" height="40px" viewBox="132 1284.5  40 40" xmlns="http://www.w3.org/2000/svg">
  <path d="M 152 1285.5  C 162.64 1285.5  171 1293.86  171 1304.5  C 171 1315.14  162.64 1323.5  152 1323.5  C 141.36 1323.5  133 1315.14  133 1304.5  C 133 1293.86  141.36 1285.5  152 1285.5  Z " fill-rule="nonzero" fill="#f2f2f2" stroke="none" />
  <path d="M 152 1285.5  C 162.64 1285.5  171 1293.86  171 1304.5  C 171 1315.14  162.64 1323.5  152 1323.5  C 141.36 1323.5  133 1315.14  133 1304.5  C 133 1293.86  141.36 1285.5  152 1285.5  Z " stroke-width="2" stroke="#aaaaaa" fill="none" />
  <path d="M 152 1314.5  C 146.4 1314.5  142 1310.1  142 1304.5  C 142 1298.9  146.4 1294.5  152 1294.5  C 157.6 1294.5  162 1298.9  162 1304.5  C 162 1310.1  157.6 1314.5  152 1314.5  " fill-rule="nonzero" fill="#aaaaaa" stroke="none" />
</svg>