<?xml version="1.0" encoding="utf-8"?>
<svg version="1.1" xmlns:xlink="http://www.w3.org/1999/xlink" width="40px" height="40px" viewBox="130 2802.5  40 40" xmlns="http://www.w3.org/2000/svg">
  <path d="M 150 2803.5  C 160.64 2803.5  169 2811.86  169 2822.5  C 169 2833.14  160.64 2841.5  150 2841.5  C 139.36 2841.5  131 2833.14  131 2822.5  C 131 2811.86  139.36 2803.5  150 2803.5  Z " fill-rule="nonzero" fill="#f2f2f2" stroke="none" />
  <path d="M 150 2803.5  C 160.64 2803.5  169 2811.86  169 2822.5  C 169 2833.14  160.64 2841.5  150 2841.5  C 139.36 2841.5  131 2833.14  131 2822.5  C 131 2811.86  139.36 2803.5  150 2803.5  Z " stroke-width="2" stroke="#aaaaaa" fill="none" />
  <path d="M 150 2832.5  C 144.4 2832.5  140 2828.1  140 2822.5  C 140 2816.9  144.4 2812.5  150 2812.5  C 155.6 2812.5  160 2816.9  160 2822.5  C 160 2828.1  155.6 2832.5  150 2832.5  " fill-rule="nonzero" fill="#aaaaaa" stroke="none" />
</svg>