<?xml version="1.0" encoding="utf-8"?>
<svg version="1.1" xmlns:xlink="http://www.w3.org/1999/xlink" width="40px" height="40px" viewBox="132 1209.5  40 40" xmlns="http://www.w3.org/2000/svg">
  <path d="M 152 1210.5  C 162.64 1210.5  171 1218.86  171 1229.5  C 171 1240.14  162.64 1248.5  152 1248.5  C 141.36 1248.5  133 1240.14  133 1229.5  C 133 1218.86  141.36 1210.5  152 1210.5  Z " fill-rule="nonzero" fill="#f2f2f2" stroke="none" />
  <path d="M 152 1210.5  C 162.64 1210.5  171 1218.86  171 1229.5  C 171 1240.14  162.64 1248.5  152 1248.5  C 141.36 1248.5  133 1240.14  133 1229.5  C 133 1218.86  141.36 1210.5  152 1210.5  Z " stroke-width="2" stroke="#aaaaaa" fill="none" />
  <path d="M 152 1239.5  C 146.4 1239.5  142 1235.1  142 1229.5  C 142 1223.9  146.4 1219.5  152 1219.5  C 157.6 1219.5  162 1223.9  162 1229.5  C 162 1235.1  157.6 1239.5  152 1239.5  " fill-rule="nonzero" fill="#aaaaaa" stroke="none" />
</svg>