<?xml version="1.0" encoding="utf-8"?>
<svg version="1.1" xmlns:xlink="http://www.w3.org/1999/xlink" width="40px" height="40px" viewBox="130 881.5  40 40" xmlns="http://www.w3.org/2000/svg">
  <path d="M 150 882.5  C 160.64 882.5  169 890.86  169 901.5  C 169 912.14  160.64 920.5  150 920.5  C 139.36 920.5  131 912.14  131 901.5  C 131 890.86  139.36 882.5  150 882.5  Z " fill-rule="nonzero" fill="#f2f2f2" stroke="none" />
  <path d="M 150 882.5  C 160.64 882.5  169 890.86  169 901.5  C 169 912.14  160.64 920.5  150 920.5  C 139.36 920.5  131 912.14  131 901.5  C 131 890.86  139.36 882.5  150 882.5  Z " stroke-width="2" stroke="#aaaaaa" fill="none" />
  <path d="M 150 911.5  C 144.4 911.5  140 907.1  140 901.5  C 140 895.9  144.4 891.5  150 891.5  C 155.6 891.5  160 895.9  160 901.5  C 160 907.1  155.6 911.5  150 911.5  " fill-rule="nonzero" fill="#aaaaaa" stroke="none" />
</svg>