<?xml version="1.0" encoding="utf-8"?>
<svg version="1.1" xmlns:xlink="http://www.w3.org/1999/xlink" width="40px" height="40px" viewBox="137 763.5  40 40" xmlns="http://www.w3.org/2000/svg">
  <path d="M 157 764.5  C 167.64 764.5  176 772.86  176 783.5  C 176 794.14  167.64 802.5  157 802.5  C 146.36 802.5  138 794.14  138 783.5  C 138 772.86  146.36 764.5  157 764.5  Z " fill-rule="nonzero" fill="#f2f2f2" stroke="none" />
  <path d="M 157 764.5  C 167.64 764.5  176 772.86  176 783.5  C 176 794.14  167.64 802.5  157 802.5  C 146.36 802.5  138 794.14  138 783.5  C 138 772.86  146.36 764.5  157 764.5  Z " stroke-width="2" stroke="#aaaaaa" fill="none" />
  <path d="M 157 793.5  C 151.4 793.5  147 789.1  147 783.5  C 147 777.9  151.4 773.5  157 773.5  C 162.6 773.5  167 777.9  167 783.5  C 167 789.1  162.6 793.5  157 793.5  " fill-rule="nonzero" fill="#aaaaaa" stroke="none" />
</svg>