<?xml version="1.0" encoding="utf-8"?>
<svg version="1.1" xmlns:xlink="http://www.w3.org/1999/xlink" width="40px" height="40px" viewBox="130 929.5  40 40" xmlns="http://www.w3.org/2000/svg">
  <path d="M 150 930.5  C 160.64 930.5  169 938.86  169 949.5  C 169 960.14  160.64 968.5  150 968.5  C 139.36 968.5  131 960.14  131 949.5  C 131 938.86  139.36 930.5  150 930.5  Z " fill-rule="nonzero" fill="#f2f2f2" stroke="none" />
  <path d="M 150 930.5  C 160.64 930.5  169 938.86  169 949.5  C 169 960.14  160.64 968.5  150 968.5  C 139.36 968.5  131 960.14  131 949.5  C 131 938.86  139.36 930.5  150 930.5  Z " stroke-width="2" stroke="#aaaaaa" fill="none" />
  <path d="M 150 959.5  C 144.4 959.5  140 955.1  140 949.5  C 140 943.9  144.4 939.5  150 939.5  C 155.6 939.5  160 943.9  160 949.5  C 160 955.1  155.6 959.5  150 959.5  " fill-rule="nonzero" fill="#aaaaaa" stroke="none" />
</svg>