<?xml version="1.0" encoding="utf-8"?>
<svg version="1.1" xmlns:xlink="http://www.w3.org/1999/xlink" width="40px" height="40px" viewBox="130 998.5  40 40" xmlns="http://www.w3.org/2000/svg">
  <path d="M 150 999.5  C 160.64 999.5  169 1007.86  169 1018.5  C 169 1029.14  160.64 1037.5  150 1037.5  C 139.36 1037.5  131 1029.14  131 1018.5  C 131 1007.86  139.36 999.5  150 999.5  Z " fill-rule="nonzero" fill="#f2f2f2" stroke="none" />
  <path d="M 150 999.5  C 160.64 999.5  169 1007.86  169 1018.5  C 169 1029.14  160.64 1037.5  150 1037.5  C 139.36 1037.5  131 1029.14  131 1018.5  C 131 1007.86  139.36 999.5  150 999.5  Z " stroke-width="2" stroke="#aaaaaa" fill="none" />
  <path d="M 150 1028.5  C 144.4 1028.5  140 1024.1  140 1018.5  C 140 1012.9  144.4 1008.5  150 1008.5  C 155.6 1008.5  160 1012.9  160 1018.5  C 160 1024.1  155.6 1028.5  150 1028.5  " fill-rule="nonzero" fill="#aaaaaa" stroke="none" />
</svg>