<?xml version="1.0" encoding="utf-8"?>
<svg version="1.1" xmlns:xlink="http://www.w3.org/1999/xlink" width="40px" height="40px" viewBox="137 881.5  40 40" xmlns="http://www.w3.org/2000/svg">
  <path d="M 157 882.5  C 167.64 882.5  176 890.86  176 901.5  C 176 912.14  167.64 920.5  157 920.5  C 146.36 920.5  138 912.14  138 901.5  C 138 890.86  146.36 882.5  157 882.5  Z " fill-rule="nonzero" fill="#f2f2f2" stroke="none" />
  <path d="M 157 882.5  C 167.64 882.5  176 890.86  176 901.5  C 176 912.14  167.64 920.5  157 920.5  C 146.36 920.5  138 912.14  138 901.5  C 138 890.86  146.36 882.5  157 882.5  Z " stroke-width="2" stroke="#aaaaaa" fill="none" />
  <path d="M 157 911.5  C 151.4 911.5  147 907.1  147 901.5  C 147 895.9  151.4 891.5  157 891.5  C 162.6 891.5  167 895.9  167 901.5  C 167 907.1  162.6 911.5  157 911.5  " fill-rule="nonzero" fill="#aaaaaa" stroke="none" />
</svg>