<?xml version="1.0" encoding="utf-8"?>
<svg version="1.1" xmlns:xlink="http://www.w3.org/1999/xlink" width="40px" height="40px" viewBox="130 1164.5  40 40" xmlns="http://www.w3.org/2000/svg">
  <path d="M 150 1165.5  C 160.64 1165.5  169 1173.86  169 1184.5  C 169 1195.14  160.64 1203.5  150 1203.5  C 139.36 1203.5  131 1195.14  131 1184.5  C 131 1173.86  139.36 1165.5  150 1165.5  Z " fill-rule="nonzero" fill="#f2f2f2" stroke="none" />
  <path d="M 150 1165.5  C 160.64 1165.5  169 1173.86  169 1184.5  C 169 1195.14  160.64 1203.5  150 1203.5  C 139.36 1203.5  131 1195.14  131 1184.5  C 131 1173.86  139.36 1165.5  150 1165.5  Z " stroke-width="2" stroke="#aaaaaa" fill="none" />
  <path d="M 150 1194.5  C 144.4 1194.5  140 1190.1  140 1184.5  C 140 1178.9  144.4 1174.5  150 1174.5  C 155.6 1174.5  160 1178.9  160 1184.5  C 160 1190.1  155.6 1194.5  150 1194.5  " fill-rule="nonzero" fill="#aaaaaa" stroke="none" />
</svg>