<?xml version="1.0" encoding="utf-8"?>
<svg version="1.1" xmlns:xlink="http://www.w3.org/1999/xlink" width="40px" height="40px" viewBox="137 998.5  40 40" xmlns="http://www.w3.org/2000/svg">
  <path d="M 157 999.5  C 167.64 999.5  176 1007.86  176 1018.5  C 176 1029.14  167.64 1037.5  157 1037.5  C 146.36 1037.5  138 1029.14  138 1018.5  C 138 1007.86  146.36 999.5  157 999.5  Z " fill-rule="nonzero" fill="#f2f2f2" stroke="none" />
  <path d="M 157 999.5  C 167.64 999.5  176 1007.86  176 1018.5  C 176 1029.14  167.64 1037.5  157 1037.5  C 146.36 1037.5  138 1029.14  138 1018.5  C 138 1007.86  146.36 999.5  157 999.5  Z " stroke-width="2" stroke="#aaaaaa" fill="none" />
  <path d="M 157 1028.5  C 151.4 1028.5  147 1024.1  147 1018.5  C 147 1012.9  151.4 1008.5  157 1008.5  C 162.6 1008.5  167 1012.9  167 1018.5  C 167 1024.1  162.6 1028.5  157 1028.5  " fill-rule="nonzero" fill="#aaaaaa" stroke="none" />
</svg>