<?xml version="1.0" encoding="utf-8"?>
<svg version="1.1" xmlns:xlink="http://www.w3.org/1999/xlink" width="40px" height="40px" viewBox="130 1116.5  40 40" xmlns="http://www.w3.org/2000/svg">
  <path d="M 150 1117.5  C 160.64 1117.5  169 1125.86  169 1136.5  C 169 1147.14  160.64 1155.5  150 1155.5  C 139.36 1155.5  131 1147.14  131 1136.5  C 131 1125.86  139.36 1117.5  150 1117.5  Z " fill-rule="nonzero" fill="#f2f2f2" stroke="none" />
  <path d="M 150 1117.5  C 160.64 1117.5  169 1125.86  169 1136.5  C 169 1147.14  160.64 1155.5  150 1155.5  C 139.36 1155.5  131 1147.14  131 1136.5  C 131 1125.86  139.36 1117.5  150 1117.5  Z " stroke-width="2" stroke="#aaaaaa" fill="none" />
  <path d="M 150 1146.5  C 144.4 1146.5  140 1142.1  140 1136.5  C 140 1130.9  144.4 1126.5  150 1126.5  C 155.6 1126.5  160 1130.9  160 1136.5  C 160 1142.1  155.6 1146.5  150 1146.5  " fill-rule="nonzero" fill="#aaaaaa" stroke="none" />
</svg>