<?xml version="1.0" encoding="utf-8"?>
<svg version="1.1" xmlns:xlink="http://www.w3.org/1999/xlink" width="40px" height="40px" viewBox="130 1281.5  40 40" xmlns="http://www.w3.org/2000/svg">
  <path d="M 150 1282.5  C 160.64 1282.5  169 1290.86  169 1301.5  C 169 1312.14  160.64 1320.5  150 1320.5  C 139.36 1320.5  131 1312.14  131 1301.5  C 131 1290.86  139.36 1282.5  150 1282.5  Z " fill-rule="nonzero" fill="#f2f2f2" stroke="none" />
  <path d="M 150 1282.5  C 160.64 1282.5  169 1290.86  169 1301.5  C 169 1312.14  160.64 1320.5  150 1320.5  C 139.36 1320.5  131 1312.14  131 1301.5  C 131 1290.86  139.36 1282.5  150 1282.5  Z " stroke-width="2" stroke="#aaaaaa" fill="none" />
  <path d="M 150 1311.5  C 144.4 1311.5  140 1307.1  140 1301.5  C 140 1295.9  144.4 1291.5  150 1291.5  C 155.6 1291.5  160 1295.9  160 1301.5  C 160 1307.1  155.6 1311.5  150 1311.5  " fill-rule="nonzero" fill="#aaaaaa" stroke="none" />
</svg>