<?xml version="1.0" encoding="utf-8"?>
<svg version="1.1" xmlns:xlink="http://www.w3.org/1999/xlink" width="40px" height="40px" viewBox="137 1116.5  40 40" xmlns="http://www.w3.org/2000/svg">
  <path d="M 157 1117.5  C 167.64 1117.5  176 1125.86  176 1136.5  C 176 1147.14  167.64 1155.5  157 1155.5  C 146.36 1155.5  138 1147.14  138 1136.5  C 138 1125.86  146.36 1117.5  157 1117.5  Z " fill-rule="nonzero" fill="#f2f2f2" stroke="none" />
  <path d="M 157 1117.5  C 167.64 1117.5  176 1125.86  176 1136.5  C 176 1147.14  167.64 1155.5  157 1155.5  C 146.36 1155.5  138 1147.14  138 1136.5  C 138 1125.86  146.36 1117.5  157 1117.5  Z " stroke-width="2" stroke="#aaaaaa" fill="none" />
  <path d="M 157 1146.5  C 151.4 1146.5  147 1142.1  147 1136.5  C 147 1130.9  151.4 1126.5  157 1126.5  C 162.6 1126.5  167 1130.9  167 1136.5  C 167 1142.1  162.6 1146.5  157 1146.5  " fill-rule="nonzero" fill="#aaaaaa" stroke="none" />
</svg>