<?xml version="1.0" encoding="utf-8"?>
<svg version="1.1" xmlns:xlink="http://www.w3.org/1999/xlink" width="40px" height="40px" viewBox="130 1233.5  40 40" xmlns="http://www.w3.org/2000/svg">
  <path d="M 150 1234.5  C 160.64 1234.5  169 1242.86  169 1253.5  C 169 1264.14  160.64 1272.5  150 1272.5  C 139.36 1272.5  131 1264.14  131 1253.5  C 131 1242.86  139.36 1234.5  150 1234.5  Z " fill-rule="nonzero" fill="#f2f2f2" stroke="none" />
  <path d="M 150 1234.5  C 160.64 1234.5  169 1242.86  169 1253.5  C 169 1264.14  160.64 1272.5  150 1272.5  C 139.36 1272.5  131 1264.14  131 1253.5  C 131 1242.86  139.36 1234.5  150 1234.5  Z " stroke-width="2" stroke="#aaaaaa" fill="none" />
  <path d="M 150 1263.5  C 144.4 1263.5  140 1259.1  140 1253.5  C 140 1247.9  144.4 1243.5  150 1243.5  C 155.6 1243.5  160 1247.9  160 1253.5  C 160 1259.1  155.6 1263.5  150 1263.5  " fill-rule="nonzero" fill="#aaaaaa" stroke="none" />
</svg>