<?xml version="1.0" encoding="utf-8"?>
<svg version="1.1" xmlns:xlink="http://www.w3.org/1999/xlink" width="40px" height="40px" viewBox="137 1233.5  40 40" xmlns="http://www.w3.org/2000/svg">
  <path d="M 157 1234.5  C 167.64 1234.5  176 1242.86  176 1253.5  C 176 1264.14  167.64 1272.5  157 1272.5  C 146.36 1272.5  138 1264.14  138 1253.5  C 138 1242.86  146.36 1234.5  157 1234.5  Z " fill-rule="nonzero" fill="#f2f2f2" stroke="none" />
  <path d="M 157 1234.5  C 167.64 1234.5  176 1242.86  176 1253.5  C 176 1264.14  167.64 1272.5  157 1272.5  C 146.36 1272.5  138 1264.14  138 1253.5  C 138 1242.86  146.36 1234.5  157 1234.5  Z " stroke-width="2" stroke="#aaaaaa" fill="none" />
  <path d="M 157 1263.5  C 151.4 1263.5  147 1259.1  147 1253.5  C 147 1247.9  151.4 1243.5  157 1243.5  C 162.6 1243.5  167 1247.9  167 1253.5  C 167 1259.1  162.6 1263.5  157 1263.5  " fill-rule="nonzero" fill="#aaaaaa" stroke="none" />
</svg>