<?xml version="1.0" encoding="utf-8"?>
<svg version="1.1" xmlns:xlink="http://www.w3.org/1999/xlink" width="40px" height="40px" viewBox="132 740.5  40 40" xmlns="http://www.w3.org/2000/svg">
  <path d="M 152 741.5  C 162.64 741.5  171 749.86  171 760.5  C 171 771.14  162.64 779.5  152 779.5  C 141.36 779.5  133 771.14  133 760.5  C 133 749.86  141.36 741.5  152 741.5  Z " fill-rule="nonzero" fill="#f2f2f2" stroke="none" />
  <path d="M 152 741.5  C 162.64 741.5  171 749.86  171 760.5  C 171 771.14  162.64 779.5  152 779.5  C 141.36 779.5  133 771.14  133 760.5  C 133 749.86  141.36 741.5  152 741.5  Z " stroke-width="2" stroke="#aaaaaa" fill="none" />
  <path d="M 152 770.5  C 146.4 770.5  142 766.1  142 760.5  C 142 754.9  146.4 750.5  152 750.5  C 157.6 750.5  162 754.9  162 760.5  C 162 766.1  157.6 770.5  152 770.5  " fill-rule="nonzero" fill="#aaaaaa" stroke="none" />
</svg>