<?xml version="1.0" encoding="utf-8"?>
<svg version="1.1" xmlns:xlink="http://www.w3.org/1999/xlink" width="40px" height="40px" viewBox="130 3793.5  40 40" xmlns="http://www.w3.org/2000/svg">
  <path d="M 150 3794.5  C 160.64 3794.5  169 3802.86  169 3813.5  C 169 3824.14  160.64 3832.5  150 3832.5  C 139.36 3832.5  131 3824.14  131 3813.5  C 131 3802.86  139.36 3794.5  150 3794.5  Z " fill-rule="nonzero" fill="#f2f2f2" stroke="none" />
  <path d="M 150 3794.5  C 160.64 3794.5  169 3802.86  169 3813.5  C 169 3824.14  160.64 3832.5  150 3832.5  C 139.36 3832.5  131 3824.14  131 3813.5  C 131 3802.86  139.36 3794.5  150 3794.5  Z " stroke-width="2" stroke="#aaaaaa" fill="none" />
  <path d="M 150 3823.5  C 144.4 3823.5  140 3819.1  140 3813.5  C 140 3807.9  144.4 3803.5  150 3803.5  C 155.6 3803.5  160 3807.9  160 3813.5  C 160 3819.1  155.6 3823.5  150 3823.5  " fill-rule="nonzero" fill="#aaaaaa" stroke="none" />
</svg>