<?xml version="1.0" encoding="utf-8"?>
<svg version="1.1" xmlns:xlink="http://www.w3.org/1999/xlink" width="40px" height="40px" viewBox="132 763.5  40 40" xmlns="http://www.w3.org/2000/svg">
  <path d="M 152 764.5  C 162.64 764.5  171 772.86  171 783.5  C 171 794.14  162.64 802.5  152 802.5  C 141.36 802.5  133 794.14  133 783.5  C 133 772.86  141.36 764.5  152 764.5  Z " fill-rule="nonzero" fill="#f2f2f2" stroke="none" />
  <path d="M 152 764.5  C 162.64 764.5  171 772.86  171 783.5  C 171 794.14  162.64 802.5  152 802.5  C 141.36 802.5  133 794.14  133 783.5  C 133 772.86  141.36 764.5  152 764.5  Z " stroke-width="2" stroke="#aaaaaa" fill="none" />
  <path d="M 152 793.5  C 146.4 793.5  142 789.1  142 783.5  C 142 777.9  146.4 773.5  152 773.5  C 157.6 773.5  162 777.9  162 783.5  C 162 789.1  157.6 793.5  152 793.5  " fill-rule="nonzero" fill="#aaaaaa" stroke="none" />
</svg>