<?xml version="1.0" encoding="utf-8"?>
<svg version="1.1" xmlns:xlink="http://www.w3.org/1999/xlink" width="40px" height="40px" viewBox="132 984.5  40 40" xmlns="http://www.w3.org/2000/svg">
  <path d="M 152 985.5  C 162.64 985.5  171 993.86  171 1004.5  C 171 1015.14  162.64 1023.5  152 1023.5  C 141.36 1023.5  133 1015.14  133 1004.5  C 133 993.86  141.36 985.5  152 985.5  Z " fill-rule="nonzero" fill="#f2f2f2" stroke="none" />
  <path d="M 152 985.5  C 162.64 985.5  171 993.86  171 1004.5  C 171 1015.14  162.64 1023.5  152 1023.5  C 141.36 1023.5  133 1015.14  133 1004.5  C 133 993.86  141.36 985.5  152 985.5  Z " stroke-width="2" stroke="#aaaaaa" fill="none" />
  <path d="M 152 1014.5  C 146.4 1014.5  142 1010.1  142 1004.5  C 142 998.9  146.4 994.5  152 994.5  C 157.6 994.5  162 998.9  162 1004.5  C 162 1010.1  157.6 1014.5  152 1014.5  " fill-rule="nonzero" fill="#aaaaaa" stroke="none" />
</svg>