<?xml version="1.0" encoding="utf-8"?>
<svg version="1.1" xmlns:xlink="http://www.w3.org/1999/xlink" width="40px" height="40px" viewBox="132 881.5  40 40" xmlns="http://www.w3.org/2000/svg">
  <path d="M 152 882.5  C 162.64 882.5  171 890.86  171 901.5  C 171 912.14  162.64 920.5  152 920.5  C 141.36 920.5  133 912.14  133 901.5  C 133 890.86  141.36 882.5  152 882.5  Z " fill-rule="nonzero" fill="#f2f2f2" stroke="none" />
  <path d="M 152 882.5  C 162.64 882.5  171 890.86  171 901.5  C 171 912.14  162.64 920.5  152 920.5  C 141.36 920.5  133 912.14  133 901.5  C 133 890.86  141.36 882.5  152 882.5  Z " stroke-width="2" stroke="#aaaaaa" fill="none" />
  <path d="M 152 911.5  C 146.4 911.5  142 907.1  142 901.5  C 142 895.9  146.4 891.5  152 891.5  C 157.6 891.5  162 895.9  162 901.5  C 162 907.1  157.6 911.5  152 911.5  " fill-rule="nonzero" fill="#aaaaaa" stroke="none" />
</svg>