<?xml version="1.0" encoding="utf-8"?>
<svg version="1.1" xmlns:xlink="http://www.w3.org/1999/xlink" width="40px" height="40px" viewBox="132 1092.5  40 40" xmlns="http://www.w3.org/2000/svg">
  <path d="M 152 1093.5  C 162.64 1093.5  171 1101.86  171 1112.5  C 171 1123.14  162.64 1131.5  152 1131.5  C 141.36 1131.5  133 1123.14  133 1112.5  C 133 1101.86  141.36 1093.5  152 1093.5  Z " fill-rule="nonzero" fill="#f2f2f2" stroke="none" />
  <path d="M 152 1093.5  C 162.64 1093.5  171 1101.86  171 1112.5  C 171 1123.14  162.64 1131.5  152 1131.5  C 141.36 1131.5  133 1123.14  133 1112.5  C 133 1101.86  141.36 1093.5  152 1093.5  Z " stroke-width="2" stroke="#aaaaaa" fill="none" />
  <path d="M 152 1122.5  C 146.4 1122.5  142 1118.1  142 1112.5  C 142 1106.9  146.4 1102.5  152 1102.5  C 157.6 1102.5  162 1106.9  162 1112.5  C 162 1118.1  157.6 1122.5  152 1122.5  " fill-rule="nonzero" fill="#aaaaaa" stroke="none" />
</svg>