<?xml version="1.0" encoding="utf-8"?>
<svg version="1.1" xmlns:xlink="http://www.w3.org/1999/xlink" width="40px" height="40px" viewBox="132 1100.5  40 40" xmlns="http://www.w3.org/2000/svg">
  <path d="M 152 1101.5  C 162.64 1101.5  171 1109.86  171 1120.5  C 171 1131.14  162.64 1139.5  152 1139.5  C 141.36 1139.5  133 1131.14  133 1120.5  C 133 1109.86  141.36 1101.5  152 1101.5  Z " fill-rule="nonzero" fill="#f2f2f2" stroke="none" />
  <path d="M 152 1101.5  C 162.64 1101.5  171 1109.86  171 1120.5  C 171 1131.14  162.64 1139.5  152 1139.5  C 141.36 1139.5  133 1131.14  133 1120.5  C 133 1109.86  141.36 1101.5  152 1101.5  Z " stroke-width="2" stroke="#aaaaaa" fill="none" />
  <path d="M 152 1130.5  C 146.4 1130.5  142 1126.1  142 1120.5  C 142 1114.9  146.4 1110.5  152 1110.5  C 157.6 1110.5  162 1114.9  162 1120.5  C 162 1126.1  157.6 1130.5  152 1130.5  " fill-rule="nonzero" fill="#aaaaaa" stroke="none" />
</svg>