<?xml version="1.0" encoding="utf-8"?>
<svg version="1.1" xmlns:xlink="http://www.w3.org/1999/xlink" width="40px" height="40px" viewBox="132 1116.5  40 40" xmlns="http://www.w3.org/2000/svg">
  <path d="M 152 1117.5  C 162.64 1117.5  171 1125.86  171 1136.5  C 171 1147.14  162.64 1155.5  152 1155.5  C 141.36 1155.5  133 1147.14  133 1136.5  C 133 1125.86  141.36 1117.5  152 1117.5  Z " fill-rule="nonzero" fill="#f2f2f2" stroke="none" />
  <path d="M 152 1117.5  C 162.64 1117.5  171 1125.86  171 1136.5  C 171 1147.14  162.64 1155.5  152 1155.5  C 141.36 1155.5  133 1147.14  133 1136.5  C 133 1125.86  141.36 1117.5  152 1117.5  Z " stroke-width="2" stroke="#aaaaaa" fill="none" />
  <path d="M 152 1146.5  C 146.4 1146.5  142 1142.1  142 1136.5  C 142 1130.9  146.4 1126.5  152 1126.5  C 157.6 1126.5  162 1130.9  162 1136.5  C 162 1142.1  157.6 1146.5  152 1146.5  " fill-rule="nonzero" fill="#aaaaaa" stroke="none" />
</svg>