<?xml version="1.0" encoding="utf-8"?>
<svg version="1.1" xmlns:xlink="http://www.w3.org/1999/xlink" width="40px" height="40px" viewBox="132 1335.5  40 40" xmlns="http://www.w3.org/2000/svg">
  <path d="M 152 1336.5  C 162.64 1336.5  171 1344.86  171 1355.5  C 171 1366.14  162.64 1374.5  152 1374.5  C 141.36 1374.5  133 1366.14  133 1355.5  C 133 1344.86  141.36 1336.5  152 1336.5  Z " fill-rule="nonzero" fill="#f2f2f2" stroke="none" />
  <path d="M 152 1336.5  C 162.64 1336.5  171 1344.86  171 1355.5  C 171 1366.14  162.64 1374.5  152 1374.5  C 141.36 1374.5  133 1366.14  133 1355.5  C 133 1344.86  141.36 1336.5  152 1336.5  Z " stroke-width="2" stroke="#aaaaaa" fill="none" />
  <path d="M 152 1365.5  C 146.4 1365.5  142 1361.1  142 1355.5  C 142 1349.9  146.4 1345.5  152 1345.5  C 157.6 1345.5  162 1349.9  162 1355.5  C 162 1361.1  157.6 1365.5  152 1365.5  " fill-rule="nonzero" fill="#aaaaaa" stroke="none" />
</svg>