<?xml version="1.0" encoding="utf-8"?>
<svg version="1.1" xmlns:xlink="http://www.w3.org/1999/xlink" width="40px" height="40px" viewBox="132 1233.5  40 40" xmlns="http://www.w3.org/2000/svg">
  <path d="M 152 1234.5  C 162.64 1234.5  171 1242.86  171 1253.5  C 171 1264.14  162.64 1272.5  152 1272.5  C 141.36 1272.5  133 1264.14  133 1253.5  C 133 1242.86  141.36 1234.5  152 1234.5  Z " fill-rule="nonzero" fill="#f2f2f2" stroke="none" />
  <path d="M 152 1234.5  C 162.64 1234.5  171 1242.86  171 1253.5  C 171 1264.14  162.64 1272.5  152 1272.5  C 141.36 1272.5  133 1264.14  133 1253.5  C 133 1242.86  141.36 1234.5  152 1234.5  Z " stroke-width="2" stroke="#aaaaaa" fill="none" />
  <path d="M 152 1263.5  C 146.4 1263.5  142 1259.1  142 1253.5  C 142 1247.9  146.4 1243.5  152 1243.5  C 157.6 1243.5  162 1247.9  162 1253.5  C 162 1259.1  157.6 1263.5  152 1263.5  " fill-rule="nonzero" fill="#aaaaaa" stroke="none" />
</svg>