<?xml version="1.0" encoding="utf-8"?>
<svg version="1.1" xmlns:xlink="http://www.w3.org/1999/xlink" width="535px" height="338px" xmlns="http://www.w3.org/2000/svg">
  <defs>
    <mask fill="white" id="clip129">
      <path d="M 0 338  L 0 31.6934306569328  C 0.652968036529046 12.8812785388114  9.7853881278532 1.92237442922249  25.8584474885858 0  L 501.657534246577 0  C 524.123287671233 0.461187214611869  534.351598173517 7.21917808218984  535 31.6934306569328  L 535 338  L 0 338  Z " fill-rule="evenodd" />
    </mask>
  </defs>
  <g transform="matrix(1 0 0 1 -293 -795 )">
    <path d="M 0 338  L 0 31.6934306569328  C 0.652968036529046 12.8812785388114  9.7853881278532 1.92237442922249  25.8584474885858 0  L 501.657534246577 0  C 524.123287671233 0.461187214611869  534.351598173517 7.21917808218984  535 31.6934306569328  L 535 338  L 0 338  Z " fill-rule="nonzero" fill="#1c6dbf" stroke="none" transform="matrix(1 0 0 1 293 795 )" />
    <path d="M 0 338  L 0 31.6934306569328  C 0.652968036529046 12.8812785388114  9.7853881278532 1.92237442922249  25.8584474885858 0  L 501.657534246577 0  C 524.123287671233 0.461187214611869  534.351598173517 7.21917808218984  535 31.6934306569328  L 535 338  L 0 338  Z " stroke-width="4" stroke="#60afe6" fill="none" transform="matrix(1 0 0 1 293 795 )" mask="url(#clip129)" />
  </g>
</svg>