<?xml version="1.0" encoding="utf-8"?>
<svg version="1.1" xmlns:xlink="http://www.w3.org/1999/xlink" width="535px" height="339px" xmlns="http://www.w3.org/2000/svg">
  <defs>
    <mask fill="white" id="clip17">
      <path d="M 0 339  L 0 21.3333333333342  C 0.652968036529046 2.52118121521278  1.81582952815546 2.92237442922249  17.8888888888881 1  L 510.333333333333 1  C 532.799086757989 1.46118721461187  534.351598173517 -3.14091924140882  535 21.3333333333342  L 535 339  L 0 339  Z " fill-rule="evenodd" />
    </mask>
  </defs>
  <g transform="matrix(1 0 0 1 -293 -794 )">
    <path d="M 0 339  L 0 21.3333333333342  C 0.652968036529046 2.52118121521278  1.81582952815546 2.92237442922249  17.8888888888881 1  L 510.333333333333 1  C 532.799086757989 1.46118721461187  534.351598173517 -3.14091924140882  535 21.3333333333342  L 535 339  L 0 339  Z " fill-rule="nonzero" fill="#1c6dbf" stroke="none" transform="matrix(1 0 0 1 293 794 )" />
    <path d="M 0 339  L 0 21.3333333333342  C 0.652968036529046 2.52118121521278  1.81582952815546 2.92237442922249  17.8888888888881 1  L 510.333333333333 1  C 532.799086757989 1.46118721461187  534.351598173517 -3.14091924140882  535 21.3333333333342  L 535 339  L 0 339  Z " stroke-width="4" stroke="#60afe6" fill="none" transform="matrix(1 0 0 1 293 794 )" mask="url(#clip17)" />
  </g>
</svg>