<?xml version="1.0" encoding="utf-8"?>
<svg version="1.1" xmlns:xlink="http://www.w3.org/1999/xlink" width="40px" height="40px" viewBox="132 821.5  40 40" xmlns="http://www.w3.org/2000/svg">
  <path d="M 152 822.5  C 162.64 822.5  171 830.86  171 841.5  C 171 852.14  162.64 860.5  152 860.5  C 141.36 860.5  133 852.14  133 841.5  C 133 830.86  141.36 822.5  152 822.5  Z " fill-rule="nonzero" fill="#f2f2f2" stroke="none" />
  <path d="M 152 822.5  C 162.64 822.5  171 830.86  171 841.5  C 171 852.14  162.64 860.5  152 860.5  C 141.36 860.5  133 852.14  133 841.5  C 133 830.86  141.36 822.5  152 822.5  Z " stroke-width="2" stroke="#aaaaaa" fill="none" />
  <path d="M 152 851.5  C 146.4 851.5  142 847.1  142 841.5  C 142 835.9  146.4 831.5  152 831.5  C 157.6 831.5  162 835.9  162 841.5  C 162 847.1  157.6 851.5  152 851.5  " fill-rule="nonzero" fill="#aaaaaa" stroke="none" />
</svg>