<?xml version="1.0" encoding="utf-8"?>
<svg version="1.1" xmlns:xlink="http://www.w3.org/1999/xlink" width="40px" height="40px" viewBox="132 813.5  40 40" xmlns="http://www.w3.org/2000/svg">
  <path d="M 152 814.5  C 162.64 814.5  171 822.86  171 833.5  C 171 844.14  162.64 852.5  152 852.5  C 141.36 852.5  133 844.14  133 833.5  C 133 822.86  141.36 814.5  152 814.5  Z " fill-rule="nonzero" fill="#f2f2f2" stroke="none" />
  <path d="M 152 814.5  C 162.64 814.5  171 822.86  171 833.5  C 171 844.14  162.64 852.5  152 852.5  C 141.36 852.5  133 844.14  133 833.5  C 133 822.86  141.36 814.5  152 814.5  Z " stroke-width="2" stroke="#aaaaaa" fill="none" />
  <path d="M 152 843.5  C 146.4 843.5  142 839.1  142 833.5  C 142 827.9  146.4 823.5  152 823.5  C 157.6 823.5  162 827.9  162 833.5  C 162 839.1  157.6 843.5  152 843.5  " fill-rule="nonzero" fill="#aaaaaa" stroke="none" />
</svg>