<?xml version="1.0" encoding="utf-8"?>
<svg version="1.1" xmlns:xlink="http://www.w3.org/1999/xlink" width="40px" height="40px" viewBox="132 930.5  40 40" xmlns="http://www.w3.org/2000/svg">
  <path d="M 152 931.5  C 162.64 931.5  171 939.86  171 950.5  C 171 961.14  162.64 969.5  152 969.5  C 141.36 969.5  133 961.14  133 950.5  C 133 939.86  141.36 931.5  152 931.5  Z " fill-rule="nonzero" fill="#f2f2f2" stroke="none" />
  <path d="M 152 931.5  C 162.64 931.5  171 939.86  171 950.5  C 171 961.14  162.64 969.5  152 969.5  C 141.36 969.5  133 961.14  133 950.5  C 133 939.86  141.36 931.5  152 931.5  Z " stroke-width="2" stroke="#aaaaaa" fill="none" />
  <path d="M 152 960.5  C 146.4 960.5  142 956.1  142 950.5  C 142 944.9  146.4 940.5  152 940.5  C 157.6 940.5  162 944.9  162 950.5  C 162 956.1  157.6 960.5  152 960.5  " fill-rule="nonzero" fill="#aaaaaa" stroke="none" />
</svg>