<?xml version="1.0" encoding="utf-8"?>
<svg version="1.1" xmlns:xlink="http://www.w3.org/1999/xlink" width="40px" height="40px" viewBox="0 2.5  40 40" xmlns="http://www.w3.org/2000/svg">
  <path d="M 20 3.5  C 30.64 3.5  39 11.86  39 22.5  C 39 33.14  30.64 41.5  20 41.5  C 9.36 41.5  1 33.14  1 22.5  C 1 11.86  9.36 3.5  20 3.5  Z " fill-rule="nonzero" fill="#f2f2f2" stroke="none" />
  <path d="M 20 3.5  C 30.64 3.5  39 11.86  39 22.5  C 39 33.14  30.64 41.5  20 41.5  C 9.36 41.5  1 33.14  1 22.5  C 1 11.86  9.36 3.5  20 3.5  Z " stroke-width="2" stroke="#aaaaaa" fill="none" />
  <path d="M 20 32.5  C 14.4 32.5  10 28.1  10 22.5  C 10 16.9  14.4 12.5  20 12.5  C 25.6 12.5  30 16.9  30 22.5  C 30 28.1  25.6 32.5  20 32.5  " fill-rule="nonzero" fill="#aaaaaa" stroke="none" />
</svg>