<?xml version="1.0" encoding="utf-8"?>
<svg version="1.1" xmlns:xlink="http://www.w3.org/1999/xlink" width="40px" height="40px" viewBox="0 120.5  40 40" xmlns="http://www.w3.org/2000/svg">
  <path d="M 20 121.5  C 30.64 121.5  39 129.86  39 140.5  C 39 151.14  30.64 159.5  20 159.5  C 9.36 159.5  1 151.14  1 140.5  C 1 129.86  9.36 121.5  20 121.5  Z " fill-rule="nonzero" fill="#f2f2f2" stroke="none" />
  <path d="M 20 121.5  C 30.64 121.5  39 129.86  39 140.5  C 39 151.14  30.64 159.5  20 159.5  C 9.36 159.5  1 151.14  1 140.5  C 1 129.86  9.36 121.5  20 121.5  Z " stroke-width="2" stroke="#aaaaaa" fill="none" />
  <path d="M 20 150.5  C 14.4 150.5  10 146.1  10 140.5  C 10 134.9  14.4 130.5  20 130.5  C 25.6 130.5  30 134.9  30 140.5  C 30 146.1  25.6 150.5  20 150.5  " fill-rule="nonzero" fill="#aaaaaa" stroke="none" />
</svg>