<?xml version="1.0" encoding="utf-8"?>
<svg version="1.1" xmlns:xlink="http://www.w3.org/1999/xlink" width="40px" height="40px" viewBox="0 237.5  40 40" xmlns="http://www.w3.org/2000/svg">
  <path d="M 20 238.5  C 30.64 238.5  39 246.86  39 257.5  C 39 268.14  30.64 276.5  20 276.5  C 9.36 276.5  1 268.14  1 257.5  C 1 246.86  9.36 238.5  20 238.5  Z " fill-rule="nonzero" fill="#f2f2f2" stroke="none" />
  <path d="M 20 238.5  C 30.64 238.5  39 246.86  39 257.5  C 39 268.14  30.64 276.5  20 276.5  C 9.36 276.5  1 268.14  1 257.5  C 1 246.86  9.36 238.5  20 238.5  Z " stroke-width="2" stroke="#aaaaaa" fill="none" />
  <path d="M 20 267.5  C 14.4 267.5  10 263.1  10 257.5  C 10 251.9  14.4 247.5  20 247.5  C 25.6 247.5  30 251.9  30 257.5  C 30 263.1  25.6 267.5  20 267.5  " fill-rule="nonzero" fill="#aaaaaa" stroke="none" />
</svg>