<?xml version="1.0" encoding="utf-8"?>
<svg version="1.1" xmlns:xlink="http://www.w3.org/1999/xlink" width="40px" height="40px" viewBox="0 355.5  40 40" xmlns="http://www.w3.org/2000/svg">
  <path d="M 20 356.5  C 30.64 356.5  39 364.86  39 375.5  C 39 386.14  30.64 394.5  20 394.5  C 9.36 394.5  1 386.14  1 375.5  C 1 364.86  9.36 356.5  20 356.5  Z " fill-rule="nonzero" fill="#f2f2f2" stroke="none" />
  <path d="M 20 356.5  C 30.64 356.5  39 364.86  39 375.5  C 39 386.14  30.64 394.5  20 394.5  C 9.36 394.5  1 386.14  1 375.5  C 1 364.86  9.36 356.5  20 356.5  Z " stroke-width="2" stroke="#aaaaaa" fill="none" />
  <path d="M 20 385.5  C 14.4 385.5  10 381.1  10 375.5  C 10 369.9  14.4 365.5  20 365.5  C 25.6 365.5  30 369.9  30 375.5  C 30 381.1  25.6 385.5  20 385.5  " fill-rule="nonzero" fill="#aaaaaa" stroke="none" />
</svg>