<?xml version="1.0" encoding="utf-8"?>
<svg version="1.1" xmlns:xlink="http://www.w3.org/1999/xlink" width="40px" height="40px" viewBox="0 472.5  40 40" xmlns="http://www.w3.org/2000/svg">
  <path d="M 20 473.5  C 30.64 473.5  39 481.86  39 492.5  C 39 503.14  30.64 511.5  20 511.5  C 9.36 511.5  1 503.14  1 492.5  C 1 481.86  9.36 473.5  20 473.5  Z " fill-rule="nonzero" fill="#f2f2f2" stroke="none" />
  <path d="M 20 473.5  C 30.64 473.5  39 481.86  39 492.5  C 39 503.14  30.64 511.5  20 511.5  C 9.36 511.5  1 503.14  1 492.5  C 1 481.86  9.36 473.5  20 473.5  Z " stroke-width="2" stroke="#aaaaaa" fill="none" />
  <path d="M 20 502.5  C 14.4 502.5  10 498.1  10 492.5  C 10 486.9  14.4 482.5  20 482.5  C 25.6 482.5  30 486.9  30 492.5  C 30 498.1  25.6 502.5  20 502.5  " fill-rule="nonzero" fill="#aaaaaa" stroke="none" />
</svg>