<?xml version="1.0" encoding="utf-8"?>
<svg version="1.1" xmlns:xlink="http://www.w3.org/1999/xlink" width="40px" height="40px" viewBox="137 601.5  40 40" xmlns="http://www.w3.org/2000/svg">
  <path d="M 157 602.5  C 167.64 602.5  176 610.86  176 621.5  C 176 632.14  167.64 640.5  157 640.5  C 146.36 640.5  138 632.14  138 621.5  C 138 610.86  146.36 602.5  157 602.5  Z " fill-rule="nonzero" fill="#f2f2f2" stroke="none" />
  <path d="M 157 602.5  C 167.64 602.5  176 610.86  176 621.5  C 176 632.14  167.64 640.5  157 640.5  C 146.36 640.5  138 632.14  138 621.5  C 138 610.86  146.36 602.5  157 602.5  Z " stroke-width="2" stroke="#aaaaaa" fill="none" />
  <path d="M 157 631.5  C 151.4 631.5  147 627.1  147 621.5  C 147 615.9  151.4 611.5  157 611.5  C 162.6 611.5  167 615.9  167 621.5  C 167 627.1  162.6 631.5  157 631.5  " fill-rule="nonzero" fill="#aaaaaa" stroke="none" />
</svg>