<?xml version="1.0" encoding="utf-8"?>
<svg version="1.1" xmlns:xlink="http://www.w3.org/1999/xlink" width="40px" height="40px" viewBox="137 718.5  40 40" xmlns="http://www.w3.org/2000/svg">
  <path d="M 157 719.5  C 167.64 719.5  176 727.86  176 738.5  C 176 749.14  167.64 757.5  157 757.5  C 146.36 757.5  138 749.14  138 738.5  C 138 727.86  146.36 719.5  157 719.5  Z " fill-rule="nonzero" fill="#f2f2f2" stroke="none" />
  <path d="M 157 719.5  C 167.64 719.5  176 727.86  176 738.5  C 176 749.14  167.64 757.5  157 757.5  C 146.36 757.5  138 749.14  138 738.5  C 138 727.86  146.36 719.5  157 719.5  Z " stroke-width="2" stroke="#aaaaaa" fill="none" />
  <path d="M 157 748.5  C 151.4 748.5  147 744.1  147 738.5  C 147 732.9  151.4 728.5  157 728.5  C 162.6 728.5  167 732.9  167 738.5  C 167 744.1  162.6 748.5  157 748.5  " fill-rule="nonzero" fill="#aaaaaa" stroke="none" />
</svg>