<?xml version="1.0" encoding="utf-8"?>
<svg version="1.1" xmlns:xlink="http://www.w3.org/1999/xlink" width="40px" height="40px" viewBox="137 836.5  40 40" xmlns="http://www.w3.org/2000/svg">
  <path d="M 157 837.5  C 167.64 837.5  176 845.86  176 856.5  C 176 867.14  167.64 875.5  157 875.5  C 146.36 875.5  138 867.14  138 856.5  C 138 845.86  146.36 837.5  157 837.5  Z " fill-rule="nonzero" fill="#f2f2f2" stroke="none" />
  <path d="M 157 837.5  C 167.64 837.5  176 845.86  176 856.5  C 176 867.14  167.64 875.5  157 875.5  C 146.36 875.5  138 867.14  138 856.5  C 138 845.86  146.36 837.5  157 837.5  Z " stroke-width="2" stroke="#aaaaaa" fill="none" />
  <path d="M 157 866.5  C 151.4 866.5  147 862.1  147 856.5  C 147 850.9  151.4 846.5  157 846.5  C 162.6 846.5  167 850.9  167 856.5  C 167 862.1  162.6 866.5  157 866.5  " fill-rule="nonzero" fill="#aaaaaa" stroke="none" />
</svg>