<?xml version="1.0" encoding="utf-8"?>
<svg version="1.1" xmlns:xlink="http://www.w3.org/1999/xlink" width="40px" height="40px" viewBox="132 483.5  40 40" xmlns="http://www.w3.org/2000/svg">
  <path d="M 152 484.5  C 162.64 484.5  171 492.86  171 503.5  C 171 514.14  162.64 522.5  152 522.5  C 141.36 522.5  133 514.14  133 503.5  C 133 492.86  141.36 484.5  152 484.5  Z " fill-rule="nonzero" fill="#f2f2f2" stroke="none" />
  <path d="M 152 484.5  C 162.64 484.5  171 492.86  171 503.5  C 171 514.14  162.64 522.5  152 522.5  C 141.36 522.5  133 514.14  133 503.5  C 133 492.86  141.36 484.5  152 484.5  Z " stroke-width="2" stroke="#aaaaaa" fill="none" />
  <path d="M 152 513.5  C 146.4 513.5  142 509.1  142 503.5  C 142 497.9  146.4 493.5  152 493.5  C 157.6 493.5  162 497.9  162 503.5  C 162 509.1  157.6 513.5  152 513.5  " fill-rule="nonzero" fill="#aaaaaa" stroke="none" />
</svg>