<?xml version="1.0" encoding="utf-8"?>
<svg version="1.1" xmlns:xlink="http://www.w3.org/1999/xlink" width="40px" height="40px" viewBox="132 601.5  40 40" xmlns="http://www.w3.org/2000/svg">
  <path d="M 152 602.5  C 162.64 602.5  171 610.86  171 621.5  C 171 632.14  162.64 640.5  152 640.5  C 141.36 640.5  133 632.14  133 621.5  C 133 610.86  141.36 602.5  152 602.5  Z " fill-rule="nonzero" fill="#f2f2f2" stroke="none" />
  <path d="M 152 602.5  C 162.64 602.5  171 610.86  171 621.5  C 171 632.14  162.64 640.5  152 640.5  C 141.36 640.5  133 632.14  133 621.5  C 133 610.86  141.36 602.5  152 602.5  Z " stroke-width="2" stroke="#aaaaaa" fill="none" />
  <path d="M 152 631.5  C 146.4 631.5  142 627.1  142 621.5  C 142 615.9  146.4 611.5  152 611.5  C 157.6 611.5  162 615.9  162 621.5  C 162 627.1  157.6 631.5  152 631.5  " fill-rule="nonzero" fill="#aaaaaa" stroke="none" />
</svg>