<?xml version="1.0" encoding="utf-8"?>
<svg version="1.1" xmlns:xlink="http://www.w3.org/1999/xlink" width="40px" height="40px" viewBox="132 705.5  40 40" xmlns="http://www.w3.org/2000/svg">
  <path d="M 152 706.5  C 162.64 706.5  171 714.86  171 725.5  C 171 736.14  162.64 744.5  152 744.5  C 141.36 744.5  133 736.14  133 725.5  C 133 714.86  141.36 706.5  152 706.5  Z " fill-rule="nonzero" fill="#f2f2f2" stroke="none" />
  <path d="M 152 706.5  C 162.64 706.5  171 714.86  171 725.5  C 171 736.14  162.64 744.5  152 744.5  C 141.36 744.5  133 736.14  133 725.5  C 133 714.86  141.36 706.5  152 706.5  Z " stroke-width="2" stroke="#aaaaaa" fill="none" />
  <path d="M 152 735.5  C 146.4 735.5  142 731.1  142 725.5  C 142 719.9  146.4 715.5  152 715.5  C 157.6 715.5  162 719.9  162 725.5  C 162 731.1  157.6 735.5  152 735.5  " fill-rule="nonzero" fill="#aaaaaa" stroke="none" />
</svg>