<?xml version="1.0" encoding="utf-8"?>
<svg version="1.1" xmlns:xlink="http://www.w3.org/1999/xlink" width="40px" height="40px" viewBox="132 718.5  40 40" xmlns="http://www.w3.org/2000/svg">
  <path d="M 152 719.5  C 162.64 719.5  171 727.86  171 738.5  C 171 749.14  162.64 757.5  152 757.5  C 141.36 757.5  133 749.14  133 738.5  C 133 727.86  141.36 719.5  152 719.5  Z " fill-rule="nonzero" fill="#f2f2f2" stroke="none" />
  <path d="M 152 719.5  C 162.64 719.5  171 727.86  171 738.5  C 171 749.14  162.64 757.5  152 757.5  C 141.36 757.5  133 749.14  133 738.5  C 133 727.86  141.36 719.5  152 719.5  Z " stroke-width="2" stroke="#aaaaaa" fill="none" />
  <path d="M 152 748.5  C 146.4 748.5  142 744.1  142 738.5  C 142 732.9  146.4 728.5  152 728.5  C 157.6 728.5  162 732.9  162 738.5  C 162 744.1  157.6 748.5  152 748.5  " fill-rule="nonzero" fill="#aaaaaa" stroke="none" />
</svg>