<?xml version="1.0" encoding="utf-8"?>
<svg version="1.1" xmlns:xlink="http://www.w3.org/1999/xlink" width="40px" height="40px" viewBox="132 836.5  40 40" xmlns="http://www.w3.org/2000/svg">
  <path d="M 152 837.5  C 162.64 837.5  171 845.86  171 856.5  C 171 867.14  162.64 875.5  152 875.5  C 141.36 875.5  133 867.14  133 856.5  C 133 845.86  141.36 837.5  152 837.5  Z " fill-rule="nonzero" fill="#f2f2f2" stroke="none" />
  <path d="M 152 837.5  C 162.64 837.5  171 845.86  171 856.5  C 171 867.14  162.64 875.5  152 875.5  C 141.36 875.5  133 867.14  133 856.5  C 133 845.86  141.36 837.5  152 837.5  Z " stroke-width="2" stroke="#aaaaaa" fill="none" />
  <path d="M 152 866.5  C 146.4 866.5  142 862.1  142 856.5  C 142 850.9  146.4 846.5  152 846.5  C 157.6 846.5  162 850.9  162 856.5  C 162 862.1  157.6 866.5  152 866.5  " fill-rule="nonzero" fill="#aaaaaa" stroke="none" />
</svg>