<?xml version="1.0" encoding="utf-8"?>
<svg version="1.1" xmlns:xlink="http://www.w3.org/1999/xlink" width="40px" height="40px" viewBox="132 939.5  40 40" xmlns="http://www.w3.org/2000/svg">
  <path d="M 152 940.5  C 162.64 940.5  171 948.86  171 959.5  C 171 970.14  162.64 978.5  152 978.5  C 141.36 978.5  133 970.14  133 959.5  C 133 948.86  141.36 940.5  152 940.5  Z " fill-rule="nonzero" fill="#f2f2f2" stroke="none" />
  <path d="M 152 940.5  C 162.64 940.5  171 948.86  171 959.5  C 171 970.14  162.64 978.5  152 978.5  C 141.36 978.5  133 970.14  133 959.5  C 133 948.86  141.36 940.5  152 940.5  Z " stroke-width="2" stroke="#aaaaaa" fill="none" />
  <path d="M 152 969.5  C 146.4 969.5  142 965.1  142 959.5  C 142 953.9  146.4 949.5  152 949.5  C 157.6 949.5  162 953.9  162 959.5  C 162 965.1  157.6 969.5  152 969.5  " fill-rule="nonzero" fill="#aaaaaa" stroke="none" />
</svg>