<?xml version="1.0" encoding="utf-8"?>
<svg version="1.1" xmlns:xlink="http://www.w3.org/1999/xlink" width="40px" height="40px" viewBox="132 1056.5  40 40" xmlns="http://www.w3.org/2000/svg">
  <path d="M 152 1057.5  C 162.64 1057.5  171 1065.86  171 1076.5  C 171 1087.14  162.64 1095.5  152 1095.5  C 141.36 1095.5  133 1087.14  133 1076.5  C 133 1065.86  141.36 1057.5  152 1057.5  Z " fill-rule="nonzero" fill="#f2f2f2" stroke="none" />
  <path d="M 152 1057.5  C 162.64 1057.5  171 1065.86  171 1076.5  C 171 1087.14  162.64 1095.5  152 1095.5  C 141.36 1095.5  133 1087.14  133 1076.5  C 133 1065.86  141.36 1057.5  152 1057.5  Z " stroke-width="2" stroke="#aaaaaa" fill="none" />
  <path d="M 152 1086.5  C 146.4 1086.5  142 1082.1  142 1076.5  C 142 1070.9  146.4 1066.5  152 1066.5  C 157.6 1066.5  162 1070.9  162 1076.5  C 162 1082.1  157.6 1086.5  152 1086.5  " fill-rule="nonzero" fill="#aaaaaa" stroke="none" />
</svg>