<?xml version="1.0" encoding="utf-8"?>
<svg version="1.1" xmlns:xlink="http://www.w3.org/1999/xlink" width="40px" height="40px" viewBox="132 757.5  40 40" xmlns="http://www.w3.org/2000/svg">
  <path d="M 152 758.5  C 162.64 758.5  171 766.86  171 777.5  C 171 788.14  162.64 796.5  152 796.5  C 141.36 796.5  133 788.14  133 777.5  C 133 766.86  141.36 758.5  152 758.5  Z " fill-rule="nonzero" fill="#f2f2f2" stroke="none" />
  <path d="M 152 758.5  C 162.64 758.5  171 766.86  171 777.5  C 171 788.14  162.64 796.5  152 796.5  C 141.36 796.5  133 788.14  133 777.5  C 133 766.86  141.36 758.5  152 758.5  Z " stroke-width="2" stroke="#aaaaaa" fill="none" />
  <path d="M 152 787.5  C 146.4 787.5  142 783.1  142 777.5  C 142 771.9  146.4 767.5  152 767.5  C 157.6 767.5  162 771.9  162 777.5  C 162 783.1  157.6 787.5  152 787.5  " fill-rule="nonzero" fill="#aaaaaa" stroke="none" />
</svg>