<?xml version="1.0" encoding="utf-8"?>
<svg version="1.1" xmlns:xlink="http://www.w3.org/1999/xlink" width="40px" height="40px" viewBox="132 555.5  40 40" xmlns="http://www.w3.org/2000/svg">
  <path d="M 152 556.5  C 162.64 556.5  171 564.86  171 575.5  C 171 586.14  162.64 594.5  152 594.5  C 141.36 594.5  133 586.14  133 575.5  C 133 564.86  141.36 556.5  152 556.5  Z " fill-rule="nonzero" fill="#f2f2f2" stroke="none" />
  <path d="M 152 556.5  C 162.64 556.5  171 564.86  171 575.5  C 171 586.14  162.64 594.5  152 594.5  C 141.36 594.5  133 586.14  133 575.5  C 133 564.86  141.36 556.5  152 556.5  Z " stroke-width="2" stroke="#aaaaaa" fill="none" />
  <path d="M 152 585.5  C 146.4 585.5  142 581.1  142 575.5  C 142 569.9  146.4 565.5  152 565.5  C 157.6 565.5  162 569.9  162 575.5  C 162 581.1  157.6 585.5  152 585.5  " fill-rule="nonzero" fill="#aaaaaa" stroke="none" />
</svg>