<?xml version="1.0" encoding="utf-8"?>
<svg version="1.1" xmlns:xlink="http://www.w3.org/1999/xlink" width="40px" height="40px" viewBox="132 681.5  40 40" xmlns="http://www.w3.org/2000/svg">
  <path d="M 152 682.5  C 162.64 682.5  171 690.86  171 701.5  C 171 712.14  162.64 720.5  152 720.5  C 141.36 720.5  133 712.14  133 701.5  C 133 690.86  141.36 682.5  152 682.5  Z " fill-rule="nonzero" fill="#f2f2f2" stroke="none" />
  <path d="M 152 682.5  C 162.64 682.5  171 690.86  171 701.5  C 171 712.14  162.64 720.5  152 720.5  C 141.36 720.5  133 712.14  133 701.5  C 133 690.86  141.36 682.5  152 682.5  Z " stroke-width="2" stroke="#aaaaaa" fill="none" />
  <path d="M 152 711.5  C 146.4 711.5  142 707.1  142 701.5  C 142 695.9  146.4 691.5  152 691.5  C 157.6 691.5  162 695.9  162 701.5  C 162 707.1  157.6 711.5  152 711.5  " fill-rule="nonzero" fill="#aaaaaa" stroke="none" />
</svg>