<?xml version="1.0" encoding="utf-8"?>
<svg version="1.1" xmlns:xlink="http://www.w3.org/1999/xlink" width="40px" height="40px" viewBox="130 427.5  40 40" xmlns="http://www.w3.org/2000/svg">
  <path d="M 150 428.5  C 160.64 428.5  169 436.86  169 447.5  C 169 458.14  160.64 466.5  150 466.5  C 139.36 466.5  131 458.14  131 447.5  C 131 436.86  139.36 428.5  150 428.5  Z " fill-rule="nonzero" fill="#f2f2f2" stroke="none" />
  <path d="M 150 428.5  C 160.64 428.5  169 436.86  169 447.5  C 169 458.14  160.64 466.5  150 466.5  C 139.36 466.5  131 458.14  131 447.5  C 131 436.86  139.36 428.5  150 428.5  Z " stroke-width="2" stroke="#aaaaaa" fill="none" />
  <path d="M 150 457.5  C 144.4 457.5  140 453.1  140 447.5  C 140 441.9  144.4 437.5  150 437.5  C 155.6 437.5  160 441.9  160 447.5  C 160 453.1  155.6 457.5  150 457.5  " fill-rule="nonzero" fill="#aaaaaa" stroke="none" />
</svg>