<?xml version="1.0" encoding="utf-8"?>
<svg version="1.1" xmlns:xlink="http://www.w3.org/1999/xlink" width="40px" height="40px" viewBox="132 789.5  40 40" xmlns="http://www.w3.org/2000/svg">
  <path d="M 152 790.5  C 162.64 790.5  171 798.86  171 809.5  C 171 820.14  162.64 828.5  152 828.5  C 141.36 828.5  133 820.14  133 809.5  C 133 798.86  141.36 790.5  152 790.5  Z " fill-rule="nonzero" fill="#f2f2f2" stroke="none" />
  <path d="M 152 790.5  C 162.64 790.5  171 798.86  171 809.5  C 171 820.14  162.64 828.5  152 828.5  C 141.36 828.5  133 820.14  133 809.5  C 133 798.86  141.36 790.5  152 790.5  Z " stroke-width="2" stroke="#aaaaaa" fill="none" />
  <path d="M 152 819.5  C 146.4 819.5  142 815.1  142 809.5  C 142 803.9  146.4 799.5  152 799.5  C 157.6 799.5  162 803.9  162 809.5  C 162 815.1  157.6 819.5  152 819.5  " fill-rule="nonzero" fill="#aaaaaa" stroke="none" />
</svg>