<?xml version="1.0" encoding="utf-8"?>
<svg version="1.1" xmlns:xlink="http://www.w3.org/1999/xlink" width="40px" height="40px" viewBox="137 427.5  40 40" xmlns="http://www.w3.org/2000/svg">
  <path d="M 157 428.5  C 167.64 428.5  176 436.86  176 447.5  C 176 458.14  167.64 466.5  157 466.5  C 146.36 466.5  138 458.14  138 447.5  C 138 436.86  146.36 428.5  157 428.5  Z " fill-rule="nonzero" fill="#f2f2f2" stroke="none" />
  <path d="M 157 428.5  C 167.64 428.5  176 436.86  176 447.5  C 176 458.14  167.64 466.5  157 466.5  C 146.36 466.5  138 458.14  138 447.5  C 138 436.86  146.36 428.5  157 428.5  Z " stroke-width="2" stroke="#aaaaaa" fill="none" />
  <path d="M 157 457.5  C 151.4 457.5  147 453.1  147 447.5  C 147 441.9  151.4 437.5  157 437.5  C 162.6 437.5  167 441.9  167 447.5  C 167 453.1  162.6 457.5  157 457.5  " fill-rule="nonzero" fill="#aaaaaa" stroke="none" />
</svg>