<?xml version="1.0" encoding="utf-8"?>
<svg version="1.1" xmlns:xlink="http://www.w3.org/1999/xlink" width="40px" height="40px" viewBox="137 545.5  40 40" xmlns="http://www.w3.org/2000/svg">
  <path d="M 157 546.5  C 167.64 546.5  176 554.86  176 565.5  C 176 576.14  167.64 584.5  157 584.5  C 146.36 584.5  138 576.14  138 565.5  C 138 554.86  146.36 546.5  157 546.5  Z " fill-rule="nonzero" fill="#f2f2f2" stroke="none" />
  <path d="M 157 546.5  C 167.64 546.5  176 554.86  176 565.5  C 176 576.14  167.64 584.5  157 584.5  C 146.36 584.5  138 576.14  138 565.5  C 138 554.86  146.36 546.5  157 546.5  Z " stroke-width="2" stroke="#aaaaaa" fill="none" />
  <path d="M 157 575.5  C 151.4 575.5  147 571.1  147 565.5  C 147 559.9  151.4 555.5  157 555.5  C 162.6 555.5  167 559.9  167 565.5  C 167 571.1  162.6 575.5  157 575.5  " fill-rule="nonzero" fill="#aaaaaa" stroke="none" />
</svg>