<?xml version="1.0" encoding="utf-8"?>
<svg version="1.1" xmlns:xlink="http://www.w3.org/1999/xlink" width="40px" height="40px" viewBox="130 662.5  40 40" xmlns="http://www.w3.org/2000/svg">
  <path d="M 150 663.5  C 160.64 663.5  169 671.86  169 682.5  C 169 693.14  160.64 701.5  150 701.5  C 139.36 701.5  131 693.14  131 682.5  C 131 671.86  139.36 663.5  150 663.5  Z " fill-rule="nonzero" fill="#f2f2f2" stroke="none" />
  <path d="M 150 663.5  C 160.64 663.5  169 671.86  169 682.5  C 169 693.14  160.64 701.5  150 701.5  C 139.36 701.5  131 693.14  131 682.5  C 131 671.86  139.36 663.5  150 663.5  Z " stroke-width="2" stroke="#aaaaaa" fill="none" />
  <path d="M 150 692.5  C 144.4 692.5  140 688.1  140 682.5  C 140 676.9  144.4 672.5  150 672.5  C 155.6 672.5  160 676.9  160 682.5  C 160 688.1  155.6 692.5  150 692.5  " fill-rule="nonzero" fill="#aaaaaa" stroke="none" />
</svg>