<?xml version="1.0" encoding="utf-8"?>
<svg version="1.1" xmlns:xlink="http://www.w3.org/1999/xlink" width="40px" height="40px" viewBox="130 780.5  40 40" xmlns="http://www.w3.org/2000/svg">
  <path d="M 150 781.5  C 160.64 781.5  169 789.86  169 800.5  C 169 811.14  160.64 819.5  150 819.5  C 139.36 819.5  131 811.14  131 800.5  C 131 789.86  139.36 781.5  150 781.5  Z " fill-rule="nonzero" fill="#f2f2f2" stroke="none" />
  <path d="M 150 781.5  C 160.64 781.5  169 789.86  169 800.5  C 169 811.14  160.64 819.5  150 819.5  C 139.36 819.5  131 811.14  131 800.5  C 131 789.86  139.36 781.5  150 781.5  Z " stroke-width="2" stroke="#aaaaaa" fill="none" />
  <path d="M 150 810.5  C 144.4 810.5  140 806.1  140 800.5  C 140 794.9  144.4 790.5  150 790.5  C 155.6 790.5  160 794.9  160 800.5  C 160 806.1  155.6 810.5  150 810.5  " fill-rule="nonzero" fill="#aaaaaa" stroke="none" />
</svg>