<?xml version="1.0" encoding="utf-8"?>
<svg version="1.1" xmlns:xlink="http://www.w3.org/1999/xlink" width="40px" height="40px" viewBox="137 662.5  40 40" xmlns="http://www.w3.org/2000/svg">
  <path d="M 157 663.5  C 167.64 663.5  176 671.86  176 682.5  C 176 693.14  167.64 701.5  157 701.5  C 146.36 701.5  138 693.14  138 682.5  C 138 671.86  146.36 663.5  157 663.5  Z " fill-rule="nonzero" fill="#f2f2f2" stroke="none" />
  <path d="M 157 663.5  C 167.64 663.5  176 671.86  176 682.5  C 176 693.14  167.64 701.5  157 701.5  C 146.36 701.5  138 693.14  138 682.5  C 138 671.86  146.36 663.5  157 663.5  Z " stroke-width="2" stroke="#aaaaaa" fill="none" />
  <path d="M 157 692.5  C 151.4 692.5  147 688.1  147 682.5  C 147 676.9  151.4 672.5  157 672.5  C 162.6 672.5  167 676.9  167 682.5  C 167 688.1  162.6 692.5  157 692.5  " fill-rule="nonzero" fill="#aaaaaa" stroke="none" />
</svg>