<?xml version="1.0" encoding="utf-8"?>
<svg version="1.1" xmlns:xlink="http://www.w3.org/1999/xlink" width="40px" height="40px" viewBox="130 897.5  40 40" xmlns="http://www.w3.org/2000/svg">
  <path d="M 150 898.5  C 160.64 898.5  169 906.86  169 917.5  C 169 928.14  160.64 936.5  150 936.5  C 139.36 936.5  131 928.14  131 917.5  C 131 906.86  139.36 898.5  150 898.5  Z " fill-rule="nonzero" fill="#f2f2f2" stroke="none" />
  <path d="M 150 898.5  C 160.64 898.5  169 906.86  169 917.5  C 169 928.14  160.64 936.5  150 936.5  C 139.36 936.5  131 928.14  131 917.5  C 131 906.86  139.36 898.5  150 898.5  Z " stroke-width="2" stroke="#aaaaaa" fill="none" />
  <path d="M 150 927.5  C 144.4 927.5  140 923.1  140 917.5  C 140 911.9  144.4 907.5  150 907.5  C 155.6 907.5  160 911.9  160 917.5  C 160 923.1  155.6 927.5  150 927.5  " fill-rule="nonzero" fill="#aaaaaa" stroke="none" />
</svg>