<?xml version="1.0" encoding="utf-8"?>
<svg version="1.1" xmlns:xlink="http://www.w3.org/1999/xlink" width="40px" height="40px" viewBox="137 780.5  40 40" xmlns="http://www.w3.org/2000/svg">
  <path d="M 157 781.5  C 167.64 781.5  176 789.86  176 800.5  C 176 811.14  167.64 819.5  157 819.5  C 146.36 819.5  138 811.14  138 800.5  C 138 789.86  146.36 781.5  157 781.5  Z " fill-rule="nonzero" fill="#f2f2f2" stroke="none" />
  <path d="M 157 781.5  C 167.64 781.5  176 789.86  176 800.5  C 176 811.14  167.64 819.5  157 819.5  C 146.36 819.5  138 811.14  138 800.5  C 138 789.86  146.36 781.5  157 781.5  Z " stroke-width="2" stroke="#aaaaaa" fill="none" />
  <path d="M 157 810.5  C 151.4 810.5  147 806.1  147 800.5  C 147 794.9  151.4 790.5  157 790.5  C 162.6 790.5  167 794.9  167 800.5  C 167 806.1  162.6 810.5  157 810.5  " fill-rule="nonzero" fill="#aaaaaa" stroke="none" />
</svg>