<?xml version="1.0" encoding="utf-8"?>
<svg version="1.1" xmlns:xlink="http://www.w3.org/1999/xlink" width="40px" height="40px" viewBox="137 897.5  40 40" xmlns="http://www.w3.org/2000/svg">
  <path d="M 157 898.5  C 167.64 898.5  176 906.86  176 917.5  C 176 928.14  167.64 936.5  157 936.5  C 146.36 936.5  138 928.14  138 917.5  C 138 906.86  146.36 898.5  157 898.5  Z " fill-rule="nonzero" fill="#f2f2f2" stroke="none" />
  <path d="M 157 898.5  C 167.64 898.5  176 906.86  176 917.5  C 176 928.14  167.64 936.5  157 936.5  C 146.36 936.5  138 928.14  138 917.5  C 138 906.86  146.36 898.5  157 898.5  Z " stroke-width="2" stroke="#aaaaaa" fill="none" />
  <path d="M 157 927.5  C 151.4 927.5  147 923.1  147 917.5  C 147 911.9  151.4 907.5  157 907.5  C 162.6 907.5  167 911.9  167 917.5  C 167 923.1  162.6 927.5  157 927.5  " fill-rule="nonzero" fill="#aaaaaa" stroke="none" />
</svg>