<?xml version="1.0" encoding="utf-8"?>
<svg version="1.1" xmlns:xlink="http://www.w3.org/1999/xlink" width="40px" height="40px" viewBox="132 427.5  40 40" xmlns="http://www.w3.org/2000/svg">
  <path d="M 152 428.5  C 162.64 428.5  171 436.86  171 447.5  C 171 458.14  162.64 466.5  152 466.5  C 141.36 466.5  133 458.14  133 447.5  C 133 436.86  141.36 428.5  152 428.5  Z " fill-rule="nonzero" fill="#f2f2f2" stroke="none" />
  <path d="M 152 428.5  C 162.64 428.5  171 436.86  171 447.5  C 171 458.14  162.64 466.5  152 466.5  C 141.36 466.5  133 458.14  133 447.5  C 133 436.86  141.36 428.5  152 428.5  Z " stroke-width="2" stroke="#aaaaaa" fill="none" />
  <path d="M 152 457.5  C 146.4 457.5  142 453.1  142 447.5  C 142 441.9  146.4 437.5  152 437.5  C 157.6 437.5  162 441.9  162 447.5  C 162 453.1  157.6 457.5  152 457.5  " fill-rule="nonzero" fill="#aaaaaa" stroke="none" />
</svg>