<?xml version="1.0" encoding="utf-8"?>
<svg version="1.1" xmlns:xlink="http://www.w3.org/1999/xlink" width="40px" height="40px" viewBox="132 531.5  40 40" xmlns="http://www.w3.org/2000/svg">
  <path d="M 152 532.5  C 162.64 532.5  171 540.86  171 551.5  C 171 562.14  162.64 570.5  152 570.5  C 141.36 570.5  133 562.14  133 551.5  C 133 540.86  141.36 532.5  152 532.5  Z " fill-rule="nonzero" fill="#f2f2f2" stroke="none" />
  <path d="M 152 532.5  C 162.64 532.5  171 540.86  171 551.5  C 171 562.14  162.64 570.5  152 570.5  C 141.36 570.5  133 562.14  133 551.5  C 133 540.86  141.36 532.5  152 532.5  Z " stroke-width="2" stroke="#aaaaaa" fill="none" />
  <path d="M 152 561.5  C 146.4 561.5  142 557.1  142 551.5  C 142 545.9  146.4 541.5  152 541.5  C 157.6 541.5  162 545.9  162 551.5  C 162 557.1  157.6 561.5  152 561.5  " fill-rule="nonzero" fill="#aaaaaa" stroke="none" />
</svg>