<?xml version="1.0" encoding="utf-8"?>
<svg version="1.1" xmlns:xlink="http://www.w3.org/1999/xlink" width="40px" height="40px" viewBox="132 545.5  40 40" xmlns="http://www.w3.org/2000/svg">
  <path d="M 152 546.5  C 162.64 546.5  171 554.86  171 565.5  C 171 576.14  162.64 584.5  152 584.5  C 141.36 584.5  133 576.14  133 565.5  C 133 554.86  141.36 546.5  152 546.5  Z " fill-rule="nonzero" fill="#f2f2f2" stroke="none" />
  <path d="M 152 546.5  C 162.64 546.5  171 554.86  171 565.5  C 171 576.14  162.64 584.5  152 584.5  C 141.36 584.5  133 576.14  133 565.5  C 133 554.86  141.36 546.5  152 546.5  Z " stroke-width="2" stroke="#aaaaaa" fill="none" />
  <path d="M 152 575.5  C 146.4 575.5  142 571.1  142 565.5  C 142 559.9  146.4 555.5  152 555.5  C 157.6 555.5  162 559.9  162 565.5  C 162 571.1  157.6 575.5  152 575.5  " fill-rule="nonzero" fill="#aaaaaa" stroke="none" />
</svg>