<?xml version="1.0" encoding="utf-8"?>
<svg version="1.1" xmlns:xlink="http://www.w3.org/1999/xlink" width="40px" height="40px" viewBox="132 649.5  40 40" xmlns="http://www.w3.org/2000/svg">
  <path d="M 152 650.5  C 162.64 650.5  171 658.86  171 669.5  C 171 680.14  162.64 688.5  152 688.5  C 141.36 688.5  133 680.14  133 669.5  C 133 658.86  141.36 650.5  152 650.5  Z " fill-rule="nonzero" fill="#f2f2f2" stroke="none" />
  <path d="M 152 650.5  C 162.64 650.5  171 658.86  171 669.5  C 171 680.14  162.64 688.5  152 688.5  C 141.36 688.5  133 680.14  133 669.5  C 133 658.86  141.36 650.5  152 650.5  Z " stroke-width="2" stroke="#aaaaaa" fill="none" />
  <path d="M 152 679.5  C 146.4 679.5  142 675.1  142 669.5  C 142 663.9  146.4 659.5  152 659.5  C 157.6 659.5  162 663.9  162 669.5  C 162 675.1  157.6 679.5  152 679.5  " fill-rule="nonzero" fill="#aaaaaa" stroke="none" />
</svg>