<?xml version="1.0" encoding="utf-8"?>
<svg version="1.1" xmlns:xlink="http://www.w3.org/1999/xlink" width="40px" height="40px" viewBox="132 766.5  40 40" xmlns="http://www.w3.org/2000/svg">
  <path d="M 152 767.5  C 162.64 767.5  171 775.86  171 786.5  C 171 797.14  162.64 805.5  152 805.5  C 141.36 805.5  133 797.14  133 786.5  C 133 775.86  141.36 767.5  152 767.5  Z " fill-rule="nonzero" fill="#f2f2f2" stroke="none" />
  <path d="M 152 767.5  C 162.64 767.5  171 775.86  171 786.5  C 171 797.14  162.64 805.5  152 805.5  C 141.36 805.5  133 797.14  133 786.5  C 133 775.86  141.36 767.5  152 767.5  Z " stroke-width="2" stroke="#aaaaaa" fill="none" />
  <path d="M 152 796.5  C 146.4 796.5  142 792.1  142 786.5  C 142 780.9  146.4 776.5  152 776.5  C 157.6 776.5  162 780.9  162 786.5  C 162 792.1  157.6 796.5  152 796.5  " fill-rule="nonzero" fill="#aaaaaa" stroke="none" />
</svg>