<?xml version="1.0" encoding="utf-8"?>
<svg version="1.1" xmlns:xlink="http://www.w3.org/1999/xlink" width="40px" height="40px" viewBox="132 662.5  40 40" xmlns="http://www.w3.org/2000/svg">
  <path d="M 152 663.5  C 162.64 663.5  171 671.86  171 682.5  C 171 693.14  162.64 701.5  152 701.5  C 141.36 701.5  133 693.14  133 682.5  C 133 671.86  141.36 663.5  152 663.5  Z " fill-rule="nonzero" fill="#f2f2f2" stroke="none" />
  <path d="M 152 663.5  C 162.64 663.5  171 671.86  171 682.5  C 171 693.14  162.64 701.5  152 701.5  C 141.36 701.5  133 693.14  133 682.5  C 133 671.86  141.36 663.5  152 663.5  Z " stroke-width="2" stroke="#aaaaaa" fill="none" />
  <path d="M 152 692.5  C 146.4 692.5  142 688.1  142 682.5  C 142 676.9  146.4 672.5  152 672.5  C 157.6 672.5  162 676.9  162 682.5  C 162 688.1  157.6 692.5  152 692.5  " fill-rule="nonzero" fill="#aaaaaa" stroke="none" />
</svg>