<?xml version="1.0" encoding="utf-8"?>
<svg version="1.1" xmlns:xlink="http://www.w3.org/1999/xlink" width="40px" height="40px" viewBox="132 654.5  40 40" xmlns="http://www.w3.org/2000/svg">
  <path d="M 152 655.5  C 162.64 655.5  171 663.86  171 674.5  C 171 685.14  162.64 693.5  152 693.5  C 141.36 693.5  133 685.14  133 674.5  C 133 663.86  141.36 655.5  152 655.5  Z " fill-rule="nonzero" fill="#f2f2f2" stroke="none" />
  <path d="M 152 655.5  C 162.64 655.5  171 663.86  171 674.5  C 171 685.14  162.64 693.5  152 693.5  C 141.36 693.5  133 685.14  133 674.5  C 133 663.86  141.36 655.5  152 655.5  Z " stroke-width="2" stroke="#aaaaaa" fill="none" />
  <path d="M 152 684.5  C 146.4 684.5  142 680.1  142 674.5  C 142 668.9  146.4 664.5  152 664.5  C 157.6 664.5  162 668.9  162 674.5  C 162 680.1  157.6 684.5  152 684.5  " fill-rule="nonzero" fill="#aaaaaa" stroke="none" />
</svg>