<?xml version="1.0" encoding="utf-8"?>
<svg version="1.1" xmlns:xlink="http://www.w3.org/1999/xlink" width="40px" height="40px" viewBox="132 780.5  40 40" xmlns="http://www.w3.org/2000/svg">
  <path d="M 152 781.5  C 162.64 781.5  171 789.86  171 800.5  C 171 811.14  162.64 819.5  152 819.5  C 141.36 819.5  133 811.14  133 800.5  C 133 789.86  141.36 781.5  152 781.5  Z " fill-rule="nonzero" fill="#f2f2f2" stroke="none" />
  <path d="M 152 781.5  C 162.64 781.5  171 789.86  171 800.5  C 171 811.14  162.64 819.5  152 819.5  C 141.36 819.5  133 811.14  133 800.5  C 133 789.86  141.36 781.5  152 781.5  Z " stroke-width="2" stroke="#aaaaaa" fill="none" />
  <path d="M 152 810.5  C 146.4 810.5  142 806.1  142 800.5  C 142 794.9  146.4 790.5  152 790.5  C 157.6 790.5  162 794.9  162 800.5  C 162 806.1  157.6 810.5  152 810.5  " fill-rule="nonzero" fill="#aaaaaa" stroke="none" />
</svg>