<?xml version="1.0" encoding="utf-8"?>
<svg version="1.1" xmlns:xlink="http://www.w3.org/1999/xlink" width="40px" height="40px" viewBox="132 673.5  40 40" xmlns="http://www.w3.org/2000/svg">
  <path d="M 152 674.5  C 162.64 674.5  171 682.86  171 693.5  C 171 704.14  162.64 712.5  152 712.5  C 141.36 712.5  133 704.14  133 693.5  C 133 682.86  141.36 674.5  152 674.5  Z " fill-rule="nonzero" fill="#f2f2f2" stroke="none" />
  <path d="M 152 674.5  C 162.64 674.5  171 682.86  171 693.5  C 171 704.14  162.64 712.5  152 712.5  C 141.36 712.5  133 704.14  133 693.5  C 133 682.86  141.36 674.5  152 674.5  Z " stroke-width="2" stroke="#aaaaaa" fill="none" />
  <path d="M 152 703.5  C 146.4 703.5  142 699.1  142 693.5  C 142 687.9  146.4 683.5  152 683.5  C 157.6 683.5  162 687.9  162 693.5  C 162 699.1  157.6 703.5  152 703.5  " fill-rule="nonzero" fill="#aaaaaa" stroke="none" />
</svg>