<?xml version="1.0" encoding="utf-8"?>
<svg version="1.1" xmlns:xlink="http://www.w3.org/1999/xlink" width="40px" height="40px" viewBox="130 695.5  40 40" xmlns="http://www.w3.org/2000/svg">
  <path d="M 150 696.5  C 160.64 696.5  169 704.86  169 715.5  C 169 726.14  160.64 734.5  150 734.5  C 139.36 734.5  131 726.14  131 715.5  C 131 704.86  139.36 696.5  150 696.5  Z " fill-rule="nonzero" fill="#f2f2f2" stroke="none" />
  <path d="M 150 696.5  C 160.64 696.5  169 704.86  169 715.5  C 169 726.14  160.64 734.5  150 734.5  C 139.36 734.5  131 726.14  131 715.5  C 131 704.86  139.36 696.5  150 696.5  Z " stroke-width="2" stroke="#aaaaaa" fill="none" />
  <path d="M 150 725.5  C 144.4 725.5  140 721.1  140 715.5  C 140 709.9  144.4 705.5  150 705.5  C 155.6 705.5  160 709.9  160 715.5  C 160 721.1  155.6 725.5  150 725.5  " fill-rule="nonzero" fill="#aaaaaa" stroke="none" />
</svg>