<?xml version="1.0" encoding="utf-8"?>
<svg version="1.1" xmlns:xlink="http://www.w3.org/1999/xlink" width="40px" height="40px" viewBox="137 577.5  40 40" xmlns="http://www.w3.org/2000/svg">
  <path d="M 157 578.5  C 167.64 578.5  176 586.86  176 597.5  C 176 608.14  167.64 616.5  157 616.5  C 146.36 616.5  138 608.14  138 597.5  C 138 586.86  146.36 578.5  157 578.5  Z " fill-rule="nonzero" fill="#f2f2f2" stroke="none" />
  <path d="M 157 578.5  C 167.64 578.5  176 586.86  176 597.5  C 176 608.14  167.64 616.5  157 616.5  C 146.36 616.5  138 608.14  138 597.5  C 138 586.86  146.36 578.5  157 578.5  Z " stroke-width="2" stroke="#aaaaaa" fill="none" />
  <path d="M 157 607.5  C 151.4 607.5  147 603.1  147 597.5  C 147 591.9  151.4 587.5  157 587.5  C 162.6 587.5  167 591.9  167 597.5  C 167 603.1  162.6 607.5  157 607.5  " fill-rule="nonzero" fill="#aaaaaa" stroke="none" />
</svg>