<?xml version="1.0" encoding="utf-8"?>
<svg version="1.1" xmlns:xlink="http://www.w3.org/1999/xlink" width="40px" height="40px" viewBox="137 695.5  40 40" xmlns="http://www.w3.org/2000/svg">
  <path d="M 157 696.5  C 167.64 696.5  176 704.86  176 715.5  C 176 726.14  167.64 734.5  157 734.5  C 146.36 734.5  138 726.14  138 715.5  C 138 704.86  146.36 696.5  157 696.5  Z " fill-rule="nonzero" fill="#f2f2f2" stroke="none" />
  <path d="M 157 696.5  C 167.64 696.5  176 704.86  176 715.5  C 176 726.14  167.64 734.5  157 734.5  C 146.36 734.5  138 726.14  138 715.5  C 138 704.86  146.36 696.5  157 696.5  Z " stroke-width="2" stroke="#aaaaaa" fill="none" />
  <path d="M 157 725.5  C 151.4 725.5  147 721.1  147 715.5  C 147 709.9  151.4 705.5  157 705.5  C 162.6 705.5  167 709.9  167 715.5  C 167 721.1  162.6 725.5  157 725.5  " fill-rule="nonzero" fill="#aaaaaa" stroke="none" />
</svg>