<?xml version="1.0" encoding="utf-8"?>
<svg version="1.1" xmlns:xlink="http://www.w3.org/1999/xlink" width="40px" height="40px" viewBox="130 812.5  40 40" xmlns="http://www.w3.org/2000/svg">
  <path d="M 150 813.5  C 160.64 813.5  169 821.86  169 832.5  C 169 843.14  160.64 851.5  150 851.5  C 139.36 851.5  131 843.14  131 832.5  C 131 821.86  139.36 813.5  150 813.5  Z " fill-rule="nonzero" fill="#f2f2f2" stroke="none" />
  <path d="M 150 813.5  C 160.64 813.5  169 821.86  169 832.5  C 169 843.14  160.64 851.5  150 851.5  C 139.36 851.5  131 843.14  131 832.5  C 131 821.86  139.36 813.5  150 813.5  Z " stroke-width="2" stroke="#aaaaaa" fill="none" />
  <path d="M 150 842.5  C 144.4 842.5  140 838.1  140 832.5  C 140 826.9  144.4 822.5  150 822.5  C 155.6 822.5  160 826.9  160 832.5  C 160 838.1  155.6 842.5  150 842.5  " fill-rule="nonzero" fill="#aaaaaa" stroke="none" />
</svg>