<?xml version="1.0" encoding="utf-8"?>
<svg version="1.1" xmlns:xlink="http://www.w3.org/1999/xlink" width="40px" height="40px" viewBox="132 1004.5  40 40" xmlns="http://www.w3.org/2000/svg">
  <path d="M 152 1005.5  C 162.64 1005.5  171 1013.86  171 1024.5  C 171 1035.14  162.64 1043.5  152 1043.5  C 141.36 1043.5  133 1035.14  133 1024.5  C 133 1013.86  141.36 1005.5  152 1005.5  Z " fill-rule="nonzero" fill="#f2f2f2" stroke="none" />
  <path d="M 152 1005.5  C 162.64 1005.5  171 1013.86  171 1024.5  C 171 1035.14  162.64 1043.5  152 1043.5  C 141.36 1043.5  133 1035.14  133 1024.5  C 133 1013.86  141.36 1005.5  152 1005.5  Z " stroke-width="2" stroke="#aaaaaa" fill="none" />
  <path d="M 152 1034.5  C 146.4 1034.5  142 1030.1  142 1024.5  C 142 1018.9  146.4 1014.5  152 1014.5  C 157.6 1014.5  162 1018.9  162 1024.5  C 162 1030.1  157.6 1034.5  152 1034.5  " fill-rule="nonzero" fill="#aaaaaa" stroke="none" />
</svg>