<?xml version="1.0" encoding="utf-8"?>
<svg version="1.1" xmlns:xlink="http://www.w3.org/1999/xlink" width="40px" height="40px" viewBox="137 812.5  40 40" xmlns="http://www.w3.org/2000/svg">
  <path d="M 157 813.5  C 167.64 813.5  176 821.86  176 832.5  C 176 843.14  167.64 851.5  157 851.5  C 146.36 851.5  138 843.14  138 832.5  C 138 821.86  146.36 813.5  157 813.5  Z " fill-rule="nonzero" fill="#f2f2f2" stroke="none" />
  <path d="M 157 813.5  C 167.64 813.5  176 821.86  176 832.5  C 176 843.14  167.64 851.5  157 851.5  C 146.36 851.5  138 843.14  138 832.5  C 138 821.86  146.36 813.5  157 813.5  Z " stroke-width="2" stroke="#aaaaaa" fill="none" />
  <path d="M 157 842.5  C 151.4 842.5  147 838.1  147 832.5  C 147 826.9  151.4 822.5  157 822.5  C 162.6 822.5  167 826.9  167 832.5  C 167 838.1  162.6 842.5  157 842.5  " fill-rule="nonzero" fill="#aaaaaa" stroke="none" />
</svg>