<?xml version="1.0" encoding="utf-8"?>
<svg version="1.1" xmlns:xlink="http://www.w3.org/1999/xlink" width="40px" height="40px" viewBox="132 1000.5  40 40" xmlns="http://www.w3.org/2000/svg">
  <path d="M 152 1001.5  C 162.64 1001.5  171 1009.86  171 1020.5  C 171 1031.14  162.64 1039.5  152 1039.5  C 141.36 1039.5  133 1031.14  133 1020.5  C 133 1009.86  141.36 1001.5  152 1001.5  Z " fill-rule="nonzero" fill="#f2f2f2" stroke="none" />
  <path d="M 152 1001.5  C 162.64 1001.5  171 1009.86  171 1020.5  C 171 1031.14  162.64 1039.5  152 1039.5  C 141.36 1039.5  133 1031.14  133 1020.5  C 133 1009.86  141.36 1001.5  152 1001.5  Z " stroke-width="2" stroke="#aaaaaa" fill="none" />
  <path d="M 152 1030.5  C 146.4 1030.5  142 1026.1  142 1020.5  C 142 1014.9  146.4 1010.5  152 1010.5  C 157.6 1010.5  162 1014.9  162 1020.5  C 162 1026.1  157.6 1030.5  152 1030.5  " fill-rule="nonzero" fill="#aaaaaa" stroke="none" />
</svg>