<?xml version="1.0" encoding="utf-8"?>
<svg version="1.1" xmlns:xlink="http://www.w3.org/1999/xlink" width="40px" height="40px" viewBox="130 930.5  40 40" xmlns="http://www.w3.org/2000/svg">
  <path d="M 150 931.5  C 160.64 931.5  169 939.86  169 950.5  C 169 961.14  160.64 969.5  150 969.5  C 139.36 969.5  131 961.14  131 950.5  C 131 939.86  139.36 931.5  150 931.5  Z " fill-rule="nonzero" fill="#f2f2f2" stroke="none" />
  <path d="M 150 931.5  C 160.64 931.5  169 939.86  169 950.5  C 169 961.14  160.64 969.5  150 969.5  C 139.36 969.5  131 961.14  131 950.5  C 131 939.86  139.36 931.5  150 931.5  Z " stroke-width="2" stroke="#aaaaaa" fill="none" />
  <path d="M 150 960.5  C 144.4 960.5  140 956.1  140 950.5  C 140 944.9  144.4 940.5  150 940.5  C 155.6 940.5  160 944.9  160 950.5  C 160 956.1  155.6 960.5  150 960.5  " fill-rule="nonzero" fill="#aaaaaa" stroke="none" />
</svg>