<?xml version="1.0" encoding="utf-8"?>
<svg version="1.1" xmlns:xlink="http://www.w3.org/1999/xlink" width="40px" height="40px" viewBox="137 930.5  40 40" xmlns="http://www.w3.org/2000/svg">
  <path d="M 157 931.5  C 167.64 931.5  176 939.86  176 950.5  C 176 961.14  167.64 969.5  157 969.5  C 146.36 969.5  138 961.14  138 950.5  C 138 939.86  146.36 931.5  157 931.5  Z " fill-rule="nonzero" fill="#f2f2f2" stroke="none" />
  <path d="M 157 931.5  C 167.64 931.5  176 939.86  176 950.5  C 176 961.14  167.64 969.5  157 969.5  C 146.36 969.5  138 961.14  138 950.5  C 138 939.86  146.36 931.5  157 931.5  Z " stroke-width="2" stroke="#aaaaaa" fill="none" />
  <path d="M 157 960.5  C 151.4 960.5  147 956.1  147 950.5  C 147 944.9  151.4 940.5  157 940.5  C 162.6 940.5  167 944.9  167 950.5  C 167 956.1  162.6 960.5  157 960.5  " fill-rule="nonzero" fill="#aaaaaa" stroke="none" />
</svg>