<?xml version="1.0" encoding="utf-8"?>
<svg version="1.1" xmlns:xlink="http://www.w3.org/1999/xlink" width="40px" height="40px" viewBox="132 1023.5  40 40" xmlns="http://www.w3.org/2000/svg">
  <path d="M 152 1024.5  C 162.64 1024.5  171 1032.86  171 1043.5  C 171 1054.14  162.64 1062.5  152 1062.5  C 141.36 1062.5  133 1054.14  133 1043.5  C 133 1032.86  141.36 1024.5  152 1024.5  Z " fill-rule="nonzero" fill="#f2f2f2" stroke="none" />
  <path d="M 152 1024.5  C 162.64 1024.5  171 1032.86  171 1043.5  C 171 1054.14  162.64 1062.5  152 1062.5  C 141.36 1062.5  133 1054.14  133 1043.5  C 133 1032.86  141.36 1024.5  152 1024.5  Z " stroke-width="2" stroke="#aaaaaa" fill="none" />
  <path d="M 152 1053.5  C 146.4 1053.5  142 1049.1  142 1043.5  C 142 1037.9  146.4 1033.5  152 1033.5  C 157.6 1033.5  162 1037.9  162 1043.5  C 162 1049.1  157.6 1053.5  152 1053.5  " fill-rule="nonzero" fill="#aaaaaa" stroke="none" />
</svg>