<?xml version="1.0" encoding="utf-8"?>
<svg version="1.1" xmlns:xlink="http://www.w3.org/1999/xlink" width="40px" height="40px" viewBox="137 1047.5  40 40" xmlns="http://www.w3.org/2000/svg">
  <path d="M 157 1048.5  C 167.64 1048.5  176 1056.86  176 1067.5  C 176 1078.14  167.64 1086.5  157 1086.5  C 146.36 1086.5  138 1078.14  138 1067.5  C 138 1056.86  146.36 1048.5  157 1048.5  Z " fill-rule="nonzero" fill="#f2f2f2" stroke="none" />
  <path d="M 157 1048.5  C 167.64 1048.5  176 1056.86  176 1067.5  C 176 1078.14  167.64 1086.5  157 1086.5  C 146.36 1086.5  138 1078.14  138 1067.5  C 138 1056.86  146.36 1048.5  157 1048.5  Z " stroke-width="2" stroke="#aaaaaa" fill="none" />
  <path d="M 157 1077.5  C 151.4 1077.5  147 1073.1  147 1067.5  C 147 1061.9  151.4 1057.5  157 1057.5  C 162.6 1057.5  167 1061.9  167 1067.5  C 167 1073.1  162.6 1077.5  157 1077.5  " fill-rule="nonzero" fill="#aaaaaa" stroke="none" />
</svg>