<?xml version="1.0" encoding="utf-8"?>
<svg version="1.1" xmlns:xlink="http://www.w3.org/1999/xlink" width="40px" height="40px" viewBox="132 577.5  40 40" xmlns="http://www.w3.org/2000/svg">
  <path d="M 152 578.5  C 162.64 578.5  171 586.86  171 597.5  C 171 608.14  162.64 616.5  152 616.5  C 141.36 616.5  133 608.14  133 597.5  C 133 586.86  141.36 578.5  152 578.5  Z " fill-rule="nonzero" fill="#f2f2f2" stroke="none" />
  <path d="M 152 578.5  C 162.64 578.5  171 586.86  171 597.5  C 171 608.14  162.64 616.5  152 616.5  C 141.36 616.5  133 608.14  133 597.5  C 133 586.86  141.36 578.5  152 578.5  Z " stroke-width="2" stroke="#aaaaaa" fill="none" />
  <path d="M 152 607.5  C 146.4 607.5  142 603.1  142 597.5  C 142 591.9  146.4 587.5  152 587.5  C 157.6 587.5  162 591.9  162 597.5  C 162 603.1  157.6 607.5  152 607.5  " fill-rule="nonzero" fill="#aaaaaa" stroke="none" />
</svg>