<?xml version="1.0" encoding="utf-8"?>
<svg version="1.1" xmlns:xlink="http://www.w3.org/1999/xlink" width="40px" height="40px" viewBox="132 695.5  40 40" xmlns="http://www.w3.org/2000/svg">
  <path d="M 152 696.5  C 162.64 696.5  171 704.86  171 715.5  C 171 726.14  162.64 734.5  152 734.5  C 141.36 734.5  133 726.14  133 715.5  C 133 704.86  141.36 696.5  152 696.5  Z " fill-rule="nonzero" fill="#f2f2f2" stroke="none" />
  <path d="M 152 696.5  C 162.64 696.5  171 704.86  171 715.5  C 171 726.14  162.64 734.5  152 734.5  C 141.36 734.5  133 726.14  133 715.5  C 133 704.86  141.36 696.5  152 696.5  Z " stroke-width="2" stroke="#aaaaaa" fill="none" />
  <path d="M 152 725.5  C 146.4 725.5  142 721.1  142 715.5  C 142 709.9  146.4 705.5  152 705.5  C 157.6 705.5  162 709.9  162 715.5  C 162 721.1  157.6 725.5  152 725.5  " fill-rule="nonzero" fill="#aaaaaa" stroke="none" />
</svg>