<?xml version="1.0" encoding="utf-8"?>
<svg version="1.1" xmlns:xlink="http://www.w3.org/1999/xlink" width="40px" height="40px" viewBox="132 915.5  40 40" xmlns="http://www.w3.org/2000/svg">
  <path d="M 152 916.5  C 162.64 916.5  171 924.86  171 935.5  C 171 946.14  162.64 954.5  152 954.5  C 141.36 954.5  133 946.14  133 935.5  C 133 924.86  141.36 916.5  152 916.5  Z " fill-rule="nonzero" fill="#f2f2f2" stroke="none" />
  <path d="M 152 916.5  C 162.64 916.5  171 924.86  171 935.5  C 171 946.14  162.64 954.5  152 954.5  C 141.36 954.5  133 946.14  133 935.5  C 133 924.86  141.36 916.5  152 916.5  Z " stroke-width="2" stroke="#aaaaaa" fill="none" />
  <path d="M 152 945.5  C 146.4 945.5  142 941.1  142 935.5  C 142 929.9  146.4 925.5  152 925.5  C 157.6 925.5  162 929.9  162 935.5  C 162 941.1  157.6 945.5  152 945.5  " fill-rule="nonzero" fill="#aaaaaa" stroke="none" />
</svg>