<?xml version="1.0" encoding="utf-8"?>
<svg version="1.1" xmlns:xlink="http://www.w3.org/1999/xlink" width="40px" height="40px" viewBox="132 1149.5  40 40" xmlns="http://www.w3.org/2000/svg">
  <path d="M 152 1150.5  C 162.64 1150.5  171 1158.86  171 1169.5  C 171 1180.14  162.64 1188.5  152 1188.5  C 141.36 1188.5  133 1180.14  133 1169.5  C 133 1158.86  141.36 1150.5  152 1150.5  Z " fill-rule="nonzero" fill="#f2f2f2" stroke="none" />
  <path d="M 152 1150.5  C 162.64 1150.5  171 1158.86  171 1169.5  C 171 1180.14  162.64 1188.5  152 1188.5  C 141.36 1188.5  133 1180.14  133 1169.5  C 133 1158.86  141.36 1150.5  152 1150.5  Z " stroke-width="2" stroke="#aaaaaa" fill="none" />
  <path d="M 152 1179.5  C 146.4 1179.5  142 1175.1  142 1169.5  C 142 1163.9  146.4 1159.5  152 1159.5  C 157.6 1159.5  162 1163.9  162 1169.5  C 162 1175.1  157.6 1179.5  152 1179.5  " fill-rule="nonzero" fill="#aaaaaa" stroke="none" />
</svg>