<?xml version="1.0" encoding="utf-8"?>
<svg version="1.1" xmlns:xlink="http://www.w3.org/1999/xlink" width="40px" height="40px" viewBox="130 558.5  40 40" xmlns="http://www.w3.org/2000/svg">
  <path d="M 150 559.5  C 160.64 559.5  169 567.86  169 578.5  C 169 589.14  160.64 597.5  150 597.5  C 139.36 597.5  131 589.14  131 578.5  C 131 567.86  139.36 559.5  150 559.5  Z " fill-rule="nonzero" fill="#f2f2f2" stroke="none" />
  <path d="M 150 559.5  C 160.64 559.5  169 567.86  169 578.5  C 169 589.14  160.64 597.5  150 597.5  C 139.36 597.5  131 589.14  131 578.5  C 131 567.86  139.36 559.5  150 559.5  Z " stroke-width="2" stroke="#aaaaaa" fill="none" />
  <path d="M 150 588.5  C 144.4 588.5  140 584.1  140 578.5  C 140 572.9  144.4 568.5  150 568.5  C 155.6 568.5  160 572.9  160 578.5  C 160 584.1  155.6 588.5  150 588.5  " fill-rule="nonzero" fill="#aaaaaa" stroke="none" />
</svg>