<?xml version="1.0" encoding="utf-8"?>
<svg version="1.1" xmlns:xlink="http://www.w3.org/1999/xlink" width="40px" height="40px" viewBox="132 536.5  40 40" xmlns="http://www.w3.org/2000/svg">
  <path d="M 152 537.5  C 162.64 537.5  171 545.86  171 556.5  C 171 567.14  162.64 575.5  152 575.5  C 141.36 575.5  133 567.14  133 556.5  C 133 545.86  141.36 537.5  152 537.5  Z " fill-rule="nonzero" fill="#f2f2f2" stroke="none" />
  <path d="M 152 537.5  C 162.64 537.5  171 545.86  171 556.5  C 171 567.14  162.64 575.5  152 575.5  C 141.36 575.5  133 567.14  133 556.5  C 133 545.86  141.36 537.5  152 537.5  Z " stroke-width="2" stroke="#aaaaaa" fill="none" />
  <path d="M 152 566.5  C 146.4 566.5  142 562.1  142 556.5  C 142 550.9  146.4 546.5  152 546.5  C 157.6 546.5  162 550.9  162 556.5  C 162 562.1  157.6 566.5  152 566.5  " fill-rule="nonzero" fill="#aaaaaa" stroke="none" />
</svg>