<?xml version="1.0" encoding="utf-8"?>
<svg version="1.1" xmlns:xlink="http://www.w3.org/1999/xlink" width="40px" height="40px" viewBox="137 558.5  40 40" xmlns="http://www.w3.org/2000/svg">
  <path d="M 157 559.5  C 167.64 559.5  176 567.86  176 578.5  C 176 589.14  167.64 597.5  157 597.5  C 146.36 597.5  138 589.14  138 578.5  C 138 567.86  146.36 559.5  157 559.5  Z " fill-rule="nonzero" fill="#f2f2f2" stroke="none" />
  <path d="M 157 559.5  C 167.64 559.5  176 567.86  176 578.5  C 176 589.14  167.64 597.5  157 597.5  C 146.36 597.5  138 589.14  138 578.5  C 138 567.86  146.36 559.5  157 559.5  Z " stroke-width="2" stroke="#aaaaaa" fill="none" />
  <path d="M 157 588.5  C 151.4 588.5  147 584.1  147 578.5  C 147 572.9  151.4 568.5  157 568.5  C 162.6 568.5  167 572.9  167 578.5  C 167 584.1  162.6 588.5  157 588.5  " fill-rule="nonzero" fill="#aaaaaa" stroke="none" />
</svg>