<?xml version="1.0" encoding="utf-8"?>
<svg version="1.1" xmlns:xlink="http://www.w3.org/1999/xlink" width="40px" height="40px" viewBox="130 676.5  40 40" xmlns="http://www.w3.org/2000/svg">
  <path d="M 150 677.5  C 160.64 677.5  169 685.86  169 696.5  C 169 707.14  160.64 715.5  150 715.5  C 139.36 715.5  131 707.14  131 696.5  C 131 685.86  139.36 677.5  150 677.5  Z " fill-rule="nonzero" fill="#f2f2f2" stroke="none" />
  <path d="M 150 677.5  C 160.64 677.5  169 685.86  169 696.5  C 169 707.14  160.64 715.5  150 715.5  C 139.36 715.5  131 707.14  131 696.5  C 131 685.86  139.36 677.5  150 677.5  Z " stroke-width="2" stroke="#aaaaaa" fill="none" />
  <path d="M 150 706.5  C 144.4 706.5  140 702.1  140 696.5  C 140 690.9  144.4 686.5  150 686.5  C 155.6 686.5  160 690.9  160 696.5  C 160 702.1  155.6 706.5  150 706.5  " fill-rule="nonzero" fill="#aaaaaa" stroke="none" />
</svg>