<?xml version="1.0" encoding="utf-8"?>
<svg version="1.1" xmlns:xlink="http://www.w3.org/1999/xlink" width="40px" height="40px" viewBox="132 800.5  40 40" xmlns="http://www.w3.org/2000/svg">
  <path d="M 152 801.5  C 162.64 801.5  171 809.86  171 820.5  C 171 831.14  162.64 839.5  152 839.5  C 141.36 839.5  133 831.14  133 820.5  C 133 809.86  141.36 801.5  152 801.5  Z " fill-rule="nonzero" fill="#f2f2f2" stroke="none" />
  <path d="M 152 801.5  C 162.64 801.5  171 809.86  171 820.5  C 171 831.14  162.64 839.5  152 839.5  C 141.36 839.5  133 831.14  133 820.5  C 133 809.86  141.36 801.5  152 801.5  Z " stroke-width="2" stroke="#aaaaaa" fill="none" />
  <path d="M 152 830.5  C 146.4 830.5  142 826.1  142 820.5  C 142 814.9  146.4 810.5  152 810.5  C 157.6 810.5  162 814.9  162 820.5  C 162 826.1  157.6 830.5  152 830.5  " fill-rule="nonzero" fill="#aaaaaa" stroke="none" />
</svg>