<?xml version="1.0" encoding="utf-8"?>
<svg version="1.1" xmlns:xlink="http://www.w3.org/1999/xlink" width="40px" height="40px" viewBox="130 793.5  40 40" xmlns="http://www.w3.org/2000/svg">
  <path d="M 150 794.5  C 160.64 794.5  169 802.86  169 813.5  C 169 824.14  160.64 832.5  150 832.5  C 139.36 832.5  131 824.14  131 813.5  C 131 802.86  139.36 794.5  150 794.5  Z " fill-rule="nonzero" fill="#f2f2f2" stroke="none" />
  <path d="M 150 794.5  C 160.64 794.5  169 802.86  169 813.5  C 169 824.14  160.64 832.5  150 832.5  C 139.36 832.5  131 824.14  131 813.5  C 131 802.86  139.36 794.5  150 794.5  Z " stroke-width="2" stroke="#aaaaaa" fill="none" />
  <path d="M 150 823.5  C 144.4 823.5  140 819.1  140 813.5  C 140 807.9  144.4 803.5  150 803.5  C 155.6 803.5  160 807.9  160 813.5  C 160 819.1  155.6 823.5  150 823.5  " fill-rule="nonzero" fill="#aaaaaa" stroke="none" />
</svg>