<?xml version="1.0" encoding="utf-8"?>
<svg version="1.1" xmlns:xlink="http://www.w3.org/1999/xlink" width="40px" height="40px" viewBox="137 676.5  40 40" xmlns="http://www.w3.org/2000/svg">
  <path d="M 157 677.5  C 167.64 677.5  176 685.86  176 696.5  C 176 707.14  167.64 715.5  157 715.5  C 146.36 715.5  138 707.14  138 696.5  C 138 685.86  146.36 677.5  157 677.5  Z " fill-rule="nonzero" fill="#f2f2f2" stroke="none" />
  <path d="M 157 677.5  C 167.64 677.5  176 685.86  176 696.5  C 176 707.14  167.64 715.5  157 715.5  C 146.36 715.5  138 707.14  138 696.5  C 138 685.86  146.36 677.5  157 677.5  Z " stroke-width="2" stroke="#aaaaaa" fill="none" />
  <path d="M 157 706.5  C 151.4 706.5  147 702.1  147 696.5  C 147 690.9  151.4 686.5  157 686.5  C 162.6 686.5  167 690.9  167 696.5  C 167 702.1  162.6 706.5  157 706.5  " fill-rule="nonzero" fill="#aaaaaa" stroke="none" />
</svg>