<?xml version="1.0" encoding="utf-8"?>
<svg version="1.1" xmlns:xlink="http://www.w3.org/1999/xlink" width="40px" height="40px" viewBox="137 793.5  40 40" xmlns="http://www.w3.org/2000/svg">
  <path d="M 157 794.5  C 167.64 794.5  176 802.86  176 813.5  C 176 824.14  167.64 832.5  157 832.5  C 146.36 832.5  138 824.14  138 813.5  C 138 802.86  146.36 794.5  157 794.5  Z " fill-rule="nonzero" fill="#f2f2f2" stroke="none" />
  <path d="M 157 794.5  C 167.64 794.5  176 802.86  176 813.5  C 176 824.14  167.64 832.5  157 832.5  C 146.36 832.5  138 824.14  138 813.5  C 138 802.86  146.36 794.5  157 794.5  Z " stroke-width="2" stroke="#aaaaaa" fill="none" />
  <path d="M 157 823.5  C 151.4 823.5  147 819.1  147 813.5  C 147 807.9  151.4 803.5  157 803.5  C 162.6 803.5  167 807.9  167 813.5  C 167 819.1  162.6 823.5  157 823.5  " fill-rule="nonzero" fill="#aaaaaa" stroke="none" />
</svg>