<?xml version="1.0" encoding="utf-8"?>
<svg version="1.1" xmlns:xlink="http://www.w3.org/1999/xlink" width="40px" height="40px" viewBox="130 911.5  40 40" xmlns="http://www.w3.org/2000/svg">
  <path d="M 150 912.5  C 160.64 912.5  169 920.86  169 931.5  C 169 942.14  160.64 950.5  150 950.5  C 139.36 950.5  131 942.14  131 931.5  C 131 920.86  139.36 912.5  150 912.5  Z " fill-rule="nonzero" fill="#f2f2f2" stroke="none" />
  <path d="M 150 912.5  C 160.64 912.5  169 920.86  169 931.5  C 169 942.14  160.64 950.5  150 950.5  C 139.36 950.5  131 942.14  131 931.5  C 131 920.86  139.36 912.5  150 912.5  Z " stroke-width="2" stroke="#aaaaaa" fill="none" />
  <path d="M 150 941.5  C 144.4 941.5  140 937.1  140 931.5  C 140 925.9  144.4 921.5  150 921.5  C 155.6 921.5  160 925.9  160 931.5  C 160 937.1  155.6 941.5  150 941.5  " fill-rule="nonzero" fill="#aaaaaa" stroke="none" />
</svg>