<?xml version="1.0" encoding="utf-8"?>
<svg version="1.1" xmlns:xlink="http://www.w3.org/1999/xlink" width="40px" height="40px" viewBox="137 911.5  40 40" xmlns="http://www.w3.org/2000/svg">
  <path d="M 157 912.5  C 167.64 912.5  176 920.86  176 931.5  C 176 942.14  167.64 950.5  157 950.5  C 146.36 950.5  138 942.14  138 931.5  C 138 920.86  146.36 912.5  157 912.5  Z " fill-rule="nonzero" fill="#f2f2f2" stroke="none" />
  <path d="M 157 912.5  C 167.64 912.5  176 920.86  176 931.5  C 176 942.14  167.64 950.5  157 950.5  C 146.36 950.5  138 942.14  138 931.5  C 138 920.86  146.36 912.5  157 912.5  Z " stroke-width="2" stroke="#aaaaaa" fill="none" />
  <path d="M 157 941.5  C 151.4 941.5  147 937.1  147 931.5  C 147 925.9  151.4 921.5  157 921.5  C 162.6 921.5  167 925.9  167 931.5  C 167 937.1  162.6 941.5  157 941.5  " fill-rule="nonzero" fill="#aaaaaa" stroke="none" />
</svg>