<?xml version="1.0" encoding="utf-8"?>
<svg version="1.1" xmlns:xlink="http://www.w3.org/1999/xlink" width="40px" height="40px" viewBox="130 1028.5  40 40" xmlns="http://www.w3.org/2000/svg">
  <path d="M 150 1029.5  C 160.64 1029.5  169 1037.86  169 1048.5  C 169 1059.14  160.64 1067.5  150 1067.5  C 139.36 1067.5  131 1059.14  131 1048.5  C 131 1037.86  139.36 1029.5  150 1029.5  Z " fill-rule="nonzero" fill="#f2f2f2" stroke="none" />
  <path d="M 150 1029.5  C 160.64 1029.5  169 1037.86  169 1048.5  C 169 1059.14  160.64 1067.5  150 1067.5  C 139.36 1067.5  131 1059.14  131 1048.5  C 131 1037.86  139.36 1029.5  150 1029.5  Z " stroke-width="2" stroke="#aaaaaa" fill="none" />
  <path d="M 150 1058.5  C 144.4 1058.5  140 1054.1  140 1048.5  C 140 1042.9  144.4 1038.5  150 1038.5  C 155.6 1038.5  160 1042.9  160 1048.5  C 160 1054.1  155.6 1058.5  150 1058.5  " fill-rule="nonzero" fill="#aaaaaa" stroke="none" />
</svg>