<?xml version="1.0" encoding="utf-8"?>
<svg version="1.1" xmlns:xlink="http://www.w3.org/1999/xlink" width="40px" height="40px" viewBox="132 1024.5  40 40" xmlns="http://www.w3.org/2000/svg">
  <path d="M 152 1025.5  C 162.64 1025.5  171 1033.86  171 1044.5  C 171 1055.14  162.64 1063.5  152 1063.5  C 141.36 1063.5  133 1055.14  133 1044.5  C 133 1033.86  141.36 1025.5  152 1025.5  Z " fill-rule="nonzero" fill="#f2f2f2" stroke="none" />
  <path d="M 152 1025.5  C 162.64 1025.5  171 1033.86  171 1044.5  C 171 1055.14  162.64 1063.5  152 1063.5  C 141.36 1063.5  133 1055.14  133 1044.5  C 133 1033.86  141.36 1025.5  152 1025.5  Z " stroke-width="2" stroke="#aaaaaa" fill="none" />
  <path d="M 152 1054.5  C 146.4 1054.5  142 1050.1  142 1044.5  C 142 1038.9  146.4 1034.5  152 1034.5  C 157.6 1034.5  162 1038.9  162 1044.5  C 162 1050.1  157.6 1054.5  152 1054.5  " fill-rule="nonzero" fill="#aaaaaa" stroke="none" />
</svg>