<?xml version="1.0" encoding="utf-8"?>
<svg version="1.1" xmlns:xlink="http://www.w3.org/1999/xlink" width="40px" height="40px" viewBox="132 1143.5  40 40" xmlns="http://www.w3.org/2000/svg">
  <path d="M 152 1144.5  C 162.64 1144.5  171 1152.86  171 1163.5  C 171 1174.14  162.64 1182.5  152 1182.5  C 141.36 1182.5  133 1174.14  133 1163.5  C 133 1152.86  141.36 1144.5  152 1144.5  Z " fill-rule="nonzero" fill="#f2f2f2" stroke="none" />
  <path d="M 152 1144.5  C 162.64 1144.5  171 1152.86  171 1163.5  C 171 1174.14  162.64 1182.5  152 1182.5  C 141.36 1182.5  133 1174.14  133 1163.5  C 133 1152.86  141.36 1144.5  152 1144.5  Z " stroke-width="2" stroke="#aaaaaa" fill="none" />
  <path d="M 152 1173.5  C 146.4 1173.5  142 1169.1  142 1163.5  C 142 1157.9  146.4 1153.5  152 1153.5  C 157.6 1153.5  162 1157.9  162 1163.5  C 162 1169.1  157.6 1173.5  152 1173.5  " fill-rule="nonzero" fill="#aaaaaa" stroke="none" />
</svg>