<?xml version="1.0" encoding="utf-8"?>
<svg version="1.1" xmlns:xlink="http://www.w3.org/1999/xlink" width="40px" height="40px" viewBox="130 683.5  40 40" xmlns="http://www.w3.org/2000/svg">
  <path d="M 150 684.5  C 160.64 684.5  169 692.86  169 703.5  C 169 714.14  160.64 722.5  150 722.5  C 139.36 722.5  131 714.14  131 703.5  C 131 692.86  139.36 684.5  150 684.5  Z " fill-rule="nonzero" fill="#f2f2f2" stroke="none" />
  <path d="M 150 684.5  C 160.64 684.5  169 692.86  169 703.5  C 169 714.14  160.64 722.5  150 722.5  C 139.36 722.5  131 714.14  131 703.5  C 131 692.86  139.36 684.5  150 684.5  Z " stroke-width="2" stroke="#aaaaaa" fill="none" />
  <path d="M 150 713.5  C 144.4 713.5  140 709.1  140 703.5  C 140 697.9  144.4 693.5  150 693.5  C 155.6 693.5  160 697.9  160 703.5  C 160 709.1  155.6 713.5  150 713.5  " fill-rule="nonzero" fill="#aaaaaa" stroke="none" />
</svg>