<?xml version="1.0" encoding="utf-8"?>
<svg version="1.1" xmlns:xlink="http://www.w3.org/1999/xlink" width="40px" height="40px" viewBox="130 800.5  40 40" xmlns="http://www.w3.org/2000/svg">
  <path d="M 150 801.5  C 160.64 801.5  169 809.86  169 820.5  C 169 831.14  160.64 839.5  150 839.5  C 139.36 839.5  131 831.14  131 820.5  C 131 809.86  139.36 801.5  150 801.5  Z " fill-rule="nonzero" fill="#f2f2f2" stroke="none" />
  <path d="M 150 801.5  C 160.64 801.5  169 809.86  169 820.5  C 169 831.14  160.64 839.5  150 839.5  C 139.36 839.5  131 831.14  131 820.5  C 131 809.86  139.36 801.5  150 801.5  Z " stroke-width="2" stroke="#aaaaaa" fill="none" />
  <path d="M 150 830.5  C 144.4 830.5  140 826.1  140 820.5  C 140 814.9  144.4 810.5  150 810.5  C 155.6 810.5  160 814.9  160 820.5  C 160 826.1  155.6 830.5  150 830.5  " fill-rule="nonzero" fill="#aaaaaa" stroke="none" />
</svg>