<?xml version="1.0" encoding="utf-8"?>
<svg version="1.1" xmlns:xlink="http://www.w3.org/1999/xlink" width="40px" height="40px" viewBox="130 918.5  40 40" xmlns="http://www.w3.org/2000/svg">
  <path d="M 150 919.5  C 160.64 919.5  169 927.86  169 938.5  C 169 949.14  160.64 957.5  150 957.5  C 139.36 957.5  131 949.14  131 938.5  C 131 927.86  139.36 919.5  150 919.5  Z " fill-rule="nonzero" fill="#f2f2f2" stroke="none" />
  <path d="M 150 919.5  C 160.64 919.5  169 927.86  169 938.5  C 169 949.14  160.64 957.5  150 957.5  C 139.36 957.5  131 949.14  131 938.5  C 131 927.86  139.36 919.5  150 919.5  Z " stroke-width="2" stroke="#aaaaaa" fill="none" />
  <path d="M 150 948.5  C 144.4 948.5  140 944.1  140 938.5  C 140 932.9  144.4 928.5  150 928.5  C 155.6 928.5  160 932.9  160 938.5  C 160 944.1  155.6 948.5  150 948.5  " fill-rule="nonzero" fill="#aaaaaa" stroke="none" />
</svg>