<?xml version="1.0" encoding="utf-8"?>
<svg version="1.1" xmlns:xlink="http://www.w3.org/1999/xlink" width="40px" height="40px" viewBox="130 2332.5  40 40" xmlns="http://www.w3.org/2000/svg">
  <path d="M 150 2333.5  C 160.64 2333.5  169 2341.86  169 2352.5  C 169 2363.14  160.64 2371.5  150 2371.5  C 139.36 2371.5  131 2363.14  131 2352.5  C 131 2341.86  139.36 2333.5  150 2333.5  Z " fill-rule="nonzero" fill="#f2f2f2" stroke="none" />
  <path d="M 150 2333.5  C 160.64 2333.5  169 2341.86  169 2352.5  C 169 2363.14  160.64 2371.5  150 2371.5  C 139.36 2371.5  131 2363.14  131 2352.5  C 131 2341.86  139.36 2333.5  150 2333.5  Z " stroke-width="2" stroke="#aaaaaa" fill="none" />
  <path d="M 150 2362.5  C 144.4 2362.5  140 2358.1  140 2352.5  C 140 2346.9  144.4 2342.5  150 2342.5  C 155.6 2342.5  160 2346.9  160 2352.5  C 160 2358.1  155.6 2362.5  150 2362.5  " fill-rule="nonzero" fill="#aaaaaa" stroke="none" />
</svg>