<?xml version="1.0" encoding="utf-8"?>
<svg version="1.1" xmlns:xlink="http://www.w3.org/1999/xlink" width="40px" height="40px" viewBox="130 2450.5  40 40" xmlns="http://www.w3.org/2000/svg">
  <path d="M 150 2451.5  C 160.64 2451.5  169 2459.86  169 2470.5  C 169 2481.14  160.64 2489.5  150 2489.5  C 139.36 2489.5  131 2481.14  131 2470.5  C 131 2459.86  139.36 2451.5  150 2451.5  Z " fill-rule="nonzero" fill="#f2f2f2" stroke="none" />
  <path d="M 150 2451.5  C 160.64 2451.5  169 2459.86  169 2470.5  C 169 2481.14  160.64 2489.5  150 2489.5  C 139.36 2489.5  131 2481.14  131 2470.5  C 131 2459.86  139.36 2451.5  150 2451.5  Z " stroke-width="2" stroke="#aaaaaa" fill="none" />
  <path d="M 150 2480.5  C 144.4 2480.5  140 2476.1  140 2470.5  C 140 2464.9  144.4 2460.5  150 2460.5  C 155.6 2460.5  160 2464.9  160 2470.5  C 160 2476.1  155.6 2480.5  150 2480.5  " fill-rule="nonzero" fill="#aaaaaa" stroke="none" />
</svg>