<?xml version="1.0" encoding="utf-8"?>
<svg version="1.1" xmlns:xlink="http://www.w3.org/1999/xlink" width="40px" height="40px" viewBox="132 974.5  40 40" xmlns="http://www.w3.org/2000/svg">
  <path d="M 152 975.5  C 162.64 975.5  171 983.86  171 994.5  C 171 1005.14  162.64 1013.5  152 1013.5  C 141.36 1013.5  133 1005.14  133 994.5  C 133 983.86  141.36 975.5  152 975.5  Z " fill-rule="nonzero" fill="#f2f2f2" stroke="none" />
  <path d="M 152 975.5  C 162.64 975.5  171 983.86  171 994.5  C 171 1005.14  162.64 1013.5  152 1013.5  C 141.36 1013.5  133 1005.14  133 994.5  C 133 983.86  141.36 975.5  152 975.5  Z " stroke-width="2" stroke="#aaaaaa" fill="none" />
  <path d="M 152 1004.5  C 146.4 1004.5  142 1000.1  142 994.5  C 142 988.9  146.4 984.5  152 984.5  C 157.6 984.5  162 988.9  162 994.5  C 162 1000.1  157.6 1004.5  152 1004.5  " fill-rule="nonzero" fill="#aaaaaa" stroke="none" />
</svg>