<?xml version="1.0" encoding="utf-8"?>
<svg version="1.1" xmlns:xlink="http://www.w3.org/1999/xlink" width="40px" height="40px" viewBox="130 2685.5  40 40" xmlns="http://www.w3.org/2000/svg">
  <path d="M 150 2686.5  C 160.64 2686.5  169 2694.86  169 2705.5  C 169 2716.14  160.64 2724.5  150 2724.5  C 139.36 2724.5  131 2716.14  131 2705.5  C 131 2694.86  139.36 2686.5  150 2686.5  Z " fill-rule="nonzero" fill="#f2f2f2" stroke="none" />
  <path d="M 150 2686.5  C 160.64 2686.5  169 2694.86  169 2705.5  C 169 2716.14  160.64 2724.5  150 2724.5  C 139.36 2724.5  131 2716.14  131 2705.5  C 131 2694.86  139.36 2686.5  150 2686.5  Z " stroke-width="2" stroke="#aaaaaa" fill="none" />
  <path d="M 150 2715.5  C 144.4 2715.5  140 2711.1  140 2705.5  C 140 2699.9  144.4 2695.5  150 2695.5  C 155.6 2695.5  160 2699.9  160 2705.5  C 160 2711.1  155.6 2715.5  150 2715.5  " fill-rule="nonzero" fill="#aaaaaa" stroke="none" />
</svg>