<?xml version="1.0" encoding="utf-8"?>
<svg version="1.1" xmlns:xlink="http://www.w3.org/1999/xlink" width="40px" height="40px" viewBox="130 3676.5  40 40" xmlns="http://www.w3.org/2000/svg">
  <path d="M 150 3677.5  C 160.64 3677.5  169 3685.86  169 3696.5  C 169 3707.14  160.64 3715.5  150 3715.5  C 139.36 3715.5  131 3707.14  131 3696.5  C 131 3685.86  139.36 3677.5  150 3677.5  Z " fill-rule="nonzero" fill="#f2f2f2" stroke="none" />
  <path d="M 150 3677.5  C 160.64 3677.5  169 3685.86  169 3696.5  C 169 3707.14  160.64 3715.5  150 3715.5  C 139.36 3715.5  131 3707.14  131 3696.5  C 131 3685.86  139.36 3677.5  150 3677.5  Z " stroke-width="2" stroke="#aaaaaa" fill="none" />
  <path d="M 150 3706.5  C 144.4 3706.5  140 3702.1  140 3696.5  C 140 3690.9  144.4 3686.5  150 3686.5  C 155.6 3686.5  160 3690.9  160 3696.5  C 160 3702.1  155.6 3706.5  150 3706.5  " fill-rule="nonzero" fill="#aaaaaa" stroke="none" />
</svg>