<?xml version="1.0" encoding="utf-8"?>
<svg version="1.1" xmlns:xlink="http://www.w3.org/1999/xlink" width="40px" height="40px" viewBox="130 4339.5  40 40" xmlns="http://www.w3.org/2000/svg">
  <path d="M 150 4340.5  C 160.64 4340.5  169 4348.86  169 4359.5  C 169 4370.14  160.64 4378.5  150 4378.5  C 139.36 4378.5  131 4370.14  131 4359.5  C 131 4348.86  139.36 4340.5  150 4340.5  Z " fill-rule="nonzero" fill="#f2f2f2" stroke="none" />
  <path d="M 150 4340.5  C 160.64 4340.5  169 4348.86  169 4359.5  C 169 4370.14  160.64 4378.5  150 4378.5  C 139.36 4378.5  131 4370.14  131 4359.5  C 131 4348.86  139.36 4340.5  150 4340.5  Z " stroke-width="2" stroke="#aaaaaa" fill="none" />
  <path d="M 150 4369.5  C 144.4 4369.5  140 4365.1  140 4359.5  C 140 4353.9  144.4 4349.5  150 4349.5  C 155.6 4349.5  160 4353.9  160 4359.5  C 160 4365.1  155.6 4369.5  150 4369.5  " fill-rule="nonzero" fill="#aaaaaa" stroke="none" />
</svg>