<?xml version="1.0" encoding="utf-8"?>
<svg version="1.1" xmlns:xlink="http://www.w3.org/1999/xlink" width="40px" height="40px" viewBox="130 4457.5  40 40" xmlns="http://www.w3.org/2000/svg">
  <path d="M 150 4458.5  C 160.64 4458.5  169 4466.86  169 4477.5  C 169 4488.14  160.64 4496.5  150 4496.5  C 139.36 4496.5  131 4488.14  131 4477.5  C 131 4466.86  139.36 4458.5  150 4458.5  Z " fill-rule="nonzero" fill="#f2f2f2" stroke="none" />
  <path d="M 150 4458.5  C 160.64 4458.5  169 4466.86  169 4477.5  C 169 4488.14  160.64 4496.5  150 4496.5  C 139.36 4496.5  131 4488.14  131 4477.5  C 131 4466.86  139.36 4458.5  150 4458.5  Z " stroke-width="2" stroke="#aaaaaa" fill="none" />
  <path d="M 150 4487.5  C 144.4 4487.5  140 4483.1  140 4477.5  C 140 4471.9  144.4 4467.5  150 4467.5  C 155.6 4467.5  160 4471.9  160 4477.5  C 160 4483.1  155.6 4487.5  150 4487.5  " fill-rule="nonzero" fill="#aaaaaa" stroke="none" />
</svg>