<?xml version="1.0" encoding="utf-8"?>
<svg version="1.1" xmlns:xlink="http://www.w3.org/1999/xlink" width="40px" height="40px" viewBox="130 4574.5  40 40" xmlns="http://www.w3.org/2000/svg">
  <path d="M 150 4575.5  C 160.64 4575.5  169 4583.86  169 4594.5  C 169 4605.14  160.64 4613.5  150 4613.5  C 139.36 4613.5  131 4605.14  131 4594.5  C 131 4583.86  139.36 4575.5  150 4575.5  Z " fill-rule="nonzero" fill="#f2f2f2" stroke="none" />
  <path d="M 150 4575.5  C 160.64 4575.5  169 4583.86  169 4594.5  C 169 4605.14  160.64 4613.5  150 4613.5  C 139.36 4613.5  131 4605.14  131 4594.5  C 131 4583.86  139.36 4575.5  150 4575.5  Z " stroke-width="2" stroke="#aaaaaa" fill="none" />
  <path d="M 150 4604.5  C 144.4 4604.5  140 4600.1  140 4594.5  C 140 4588.9  144.4 4584.5  150 4584.5  C 155.6 4584.5  160 4588.9  160 4594.5  C 160 4600.1  155.6 4604.5  150 4604.5  " fill-rule="nonzero" fill="#aaaaaa" stroke="none" />
</svg>