<?xml version="1.0" encoding="utf-8"?>
<svg version="1.1" xmlns:xlink="http://www.w3.org/1999/xlink" width="40px" height="40px" viewBox="130 5378.5  40 40" xmlns="http://www.w3.org/2000/svg">
  <path d="M 150 5379.5  C 160.64 5379.5  169 5387.86  169 5398.5  C 169 5409.14  160.64 5417.5  150 5417.5  C 139.36 5417.5  131 5409.14  131 5398.5  C 131 5387.86  139.36 5379.5  150 5379.5  Z " fill-rule="nonzero" fill="#f2f2f2" stroke="none" />
  <path d="M 150 5379.5  C 160.64 5379.5  169 5387.86  169 5398.5  C 169 5409.14  160.64 5417.5  150 5417.5  C 139.36 5417.5  131 5409.14  131 5398.5  C 131 5387.86  139.36 5379.5  150 5379.5  Z " stroke-width="2" stroke="#aaaaaa" fill="none" />
  <path d="M 150 5408.5  C 144.4 5408.5  140 5404.1  140 5398.5  C 140 5392.9  144.4 5388.5  150 5388.5  C 155.6 5388.5  160 5392.9  160 5398.5  C 160 5404.1  155.6 5408.5  150 5408.5  " fill-rule="nonzero" fill="#aaaaaa" stroke="none" />
</svg>