<?xml version="1.0" encoding="utf-8"?>
<svg version="1.1" xmlns:xlink="http://www.w3.org/1999/xlink" width="40px" height="40px" viewBox="130 5496.5  40 40" xmlns="http://www.w3.org/2000/svg">
  <path d="M 150 5497.5  C 160.64 5497.5  169 5505.86  169 5516.5  C 169 5527.14  160.64 5535.5  150 5535.5  C 139.36 5535.5  131 5527.14  131 5516.5  C 131 5505.86  139.36 5497.5  150 5497.5  Z " fill-rule="nonzero" fill="#f2f2f2" stroke="none" />
  <path d="M 150 5497.5  C 160.64 5497.5  169 5505.86  169 5516.5  C 169 5527.14  160.64 5535.5  150 5535.5  C 139.36 5535.5  131 5527.14  131 5516.5  C 131 5505.86  139.36 5497.5  150 5497.5  Z " stroke-width="2" stroke="#aaaaaa" fill="none" />
  <path d="M 150 5526.5  C 144.4 5526.5  140 5522.1  140 5516.5  C 140 5510.9  144.4 5506.5  150 5506.5  C 155.6 5506.5  160 5510.9  160 5516.5  C 160 5522.1  155.6 5526.5  150 5526.5  " fill-rule="nonzero" fill="#aaaaaa" stroke="none" />
</svg>