<?xml version="1.0" encoding="utf-8"?>
<svg version="1.1" xmlns:xlink="http://www.w3.org/1999/xlink" width="40px" height="40px" viewBox="130 5613.5  40 40" xmlns="http://www.w3.org/2000/svg">
  <path d="M 150 5614.5  C 160.64 5614.5  169 5622.86  169 5633.5  C 169 5644.14  160.64 5652.5  150 5652.5  C 139.36 5652.5  131 5644.14  131 5633.5  C 131 5622.86  139.36 5614.5  150 5614.5  Z " fill-rule="nonzero" fill="#f2f2f2" stroke="none" />
  <path d="M 150 5614.5  C 160.64 5614.5  169 5622.86  169 5633.5  C 169 5644.14  160.64 5652.5  150 5652.5  C 139.36 5652.5  131 5644.14  131 5633.5  C 131 5622.86  139.36 5614.5  150 5614.5  Z " stroke-width="2" stroke="#aaaaaa" fill="none" />
  <path d="M 150 5643.5  C 144.4 5643.5  140 5639.1  140 5633.5  C 140 5627.9  144.4 5623.5  150 5623.5  C 155.6 5623.5  160 5627.9  160 5633.5  C 160 5639.1  155.6 5643.5  150 5643.5  " fill-rule="nonzero" fill="#aaaaaa" stroke="none" />
</svg>