<?xml version="1.0" encoding="utf-8"?>
<svg version="1.1" xmlns:xlink="http://www.w3.org/1999/xlink" width="40px" height="40px" viewBox="130 5848.5  40 40" xmlns="http://www.w3.org/2000/svg">
  <path d="M 150 5849.5  C 160.64 5849.5  169 5857.86  169 5868.5  C 169 5879.14  160.64 5887.5  150 5887.5  C 139.36 5887.5  131 5879.14  131 5868.5  C 131 5857.86  139.36 5849.5  150 5849.5  Z " fill-rule="nonzero" fill="#f2f2f2" stroke="none" />
  <path d="M 150 5849.5  C 160.64 5849.5  169 5857.86  169 5868.5  C 169 5879.14  160.64 5887.5  150 5887.5  C 139.36 5887.5  131 5879.14  131 5868.5  C 131 5857.86  139.36 5849.5  150 5849.5  Z " stroke-width="2" stroke="#aaaaaa" fill="none" />
  <path d="M 150 5878.5  C 144.4 5878.5  140 5874.1  140 5868.5  C 140 5862.9  144.4 5858.5  150 5858.5  C 155.6 5858.5  160 5862.9  160 5868.5  C 160 5874.1  155.6 5878.5  150 5878.5  " fill-rule="nonzero" fill="#aaaaaa" stroke="none" />
</svg>