<?xml version="1.0" encoding="utf-8"?>
<svg version="1.1" xmlns:xlink="http://www.w3.org/1999/xlink" width="40px" height="40px" viewBox="130 718.5  40 40" xmlns="http://www.w3.org/2000/svg">
  <path d="M 150 719.5  C 160.64 719.5  169 727.86  169 738.5  C 169 749.14  160.64 757.5  150 757.5  C 139.36 757.5  131 749.14  131 738.5  C 131 727.86  139.36 719.5  150 719.5  Z " fill-rule="nonzero" fill="#f2f2f2" stroke="none" />
  <path d="M 150 719.5  C 160.64 719.5  169 727.86  169 738.5  C 169 749.14  160.64 757.5  150 757.5  C 139.36 757.5  131 749.14  131 738.5  C 131 727.86  139.36 719.5  150 719.5  Z " stroke-width="2" stroke="#aaaaaa" fill="none" />
  <path d="M 150 748.5  C 144.4 748.5  140 744.1  140 738.5  C 140 732.9  144.4 728.5  150 728.5  C 155.6 728.5  160 732.9  160 738.5  C 160 744.1  155.6 748.5  150 748.5  " fill-rule="nonzero" fill="#aaaaaa" stroke="none" />
</svg>