<?xml version="1.0" encoding="utf-8"?>
<svg version="1.1" xmlns:xlink="http://www.w3.org/1999/xlink" width="40px" height="40px" viewBox="130 836.5  40 40" xmlns="http://www.w3.org/2000/svg">
  <path d="M 150 837.5  C 160.64 837.5  169 845.86  169 856.5  C 169 867.14  160.64 875.5  150 875.5  C 139.36 875.5  131 867.14  131 856.5  C 131 845.86  139.36 837.5  150 837.5  Z " fill-rule="nonzero" fill="#f2f2f2" stroke="none" />
  <path d="M 150 837.5  C 160.64 837.5  169 845.86  169 856.5  C 169 867.14  160.64 875.5  150 875.5  C 139.36 875.5  131 867.14  131 856.5  C 131 845.86  139.36 837.5  150 837.5  Z " stroke-width="2" stroke="#aaaaaa" fill="none" />
  <path d="M 150 866.5  C 144.4 866.5  140 862.1  140 856.5  C 140 850.9  144.4 846.5  150 846.5  C 155.6 846.5  160 850.9  160 856.5  C 160 862.1  155.6 866.5  150 866.5  " fill-rule="nonzero" fill="#aaaaaa" stroke="none" />
</svg>