<?xml version="1.0" encoding="utf-8"?>
<svg version="1.1" xmlns:xlink="http://www.w3.org/1999/xlink" width="40px" height="40px" viewBox="132 640.5  40 40" xmlns="http://www.w3.org/2000/svg">
  <path d="M 152 641.5  C 162.64 641.5  171 649.86  171 660.5  C 171 671.14  162.64 679.5  152 679.5  C 141.36 679.5  133 671.14  133 660.5  C 133 649.86  141.36 641.5  152 641.5  Z " fill-rule="nonzero" fill="#f2f2f2" stroke="none" />
  <path d="M 152 641.5  C 162.64 641.5  171 649.86  171 660.5  C 171 671.14  162.64 679.5  152 679.5  C 141.36 679.5  133 671.14  133 660.5  C 133 649.86  141.36 641.5  152 641.5  Z " stroke-width="2" stroke="#aaaaaa" fill="none" />
  <path d="M 152 670.5  C 146.4 670.5  142 666.1  142 660.5  C 142 654.9  146.4 650.5  152 650.5  C 157.6 650.5  162 654.9  162 660.5  C 162 666.1  157.6 670.5  152 670.5  " fill-rule="nonzero" fill="#aaaaaa" stroke="none" />
</svg>