<?xml version="1.0" encoding="utf-8"?>
<svg version="1.1" xmlns:xlink="http://www.w3.org/1999/xlink" width="40px" height="40px" viewBox="132 770.5  40 40" xmlns="http://www.w3.org/2000/svg">
  <path d="M 152 771.5  C 162.64 771.5  171 779.86  171 790.5  C 171 801.14  162.64 809.5  152 809.5  C 141.36 809.5  133 801.14  133 790.5  C 133 779.86  141.36 771.5  152 771.5  Z " fill-rule="nonzero" fill="#f2f2f2" stroke="none" />
  <path d="M 152 771.5  C 162.64 771.5  171 779.86  171 790.5  C 171 801.14  162.64 809.5  152 809.5  C 141.36 809.5  133 801.14  133 790.5  C 133 779.86  141.36 771.5  152 771.5  Z " stroke-width="2" stroke="#aaaaaa" fill="none" />
  <path d="M 152 800.5  C 146.4 800.5  142 796.1  142 790.5  C 142 784.9  146.4 780.5  152 780.5  C 157.6 780.5  162 784.9  162 790.5  C 162 796.1  157.6 800.5  152 800.5  " fill-rule="nonzero" fill="#aaaaaa" stroke="none" />
</svg>