<?xml version="1.0" encoding="utf-8"?>
<svg version="1.1" xmlns:xlink="http://www.w3.org/1999/xlink" width="40px" height="40px" viewBox="130 545.5  40 40" xmlns="http://www.w3.org/2000/svg">
  <path d="M 150 546.5  C 160.64 546.5  169 554.86  169 565.5  C 169 576.14  160.64 584.5  150 584.5  C 139.36 584.5  131 576.14  131 565.5  C 131 554.86  139.36 546.5  150 546.5  Z " fill-rule="nonzero" fill="#f2f2f2" stroke="none" />
  <path d="M 150 546.5  C 160.64 546.5  169 554.86  169 565.5  C 169 576.14  160.64 584.5  150 584.5  C 139.36 584.5  131 576.14  131 565.5  C 131 554.86  139.36 546.5  150 546.5  Z " stroke-width="2" stroke="#aaaaaa" fill="none" />
  <path d="M 150 575.5  C 144.4 575.5  140 571.1  140 565.5  C 140 559.9  144.4 555.5  150 555.5  C 155.6 555.5  160 559.9  160 565.5  C 160 571.1  155.6 575.5  150 575.5  " fill-rule="nonzero" fill="#aaaaaa" stroke="none" />
</svg>