<?xml version="1.0" encoding="utf-8"?>
<svg version="1.1" xmlns:xlink="http://www.w3.org/1999/xlink" width="40px" height="40px" viewBox="130 557.5  40 40" xmlns="http://www.w3.org/2000/svg">
  <path d="M 150 558.5  C 160.64 558.5  169 566.86  169 577.5  C 169 588.14  160.64 596.5  150 596.5  C 139.36 596.5  131 588.14  131 577.5  C 131 566.86  139.36 558.5  150 558.5  Z " fill-rule="nonzero" fill="#f2f2f2" stroke="none" />
  <path d="M 150 558.5  C 160.64 558.5  169 566.86  169 577.5  C 169 588.14  160.64 596.5  150 596.5  C 139.36 596.5  131 588.14  131 577.5  C 131 566.86  139.36 558.5  150 558.5  Z " stroke-width="2" stroke="#aaaaaa" fill="none" />
  <path d="M 150 587.5  C 144.4 587.5  140 583.1  140 577.5  C 140 571.9  144.4 567.5  150 567.5  C 155.6 567.5  160 571.9  160 577.5  C 160 583.1  155.6 587.5  150 587.5  " fill-rule="nonzero" fill="#aaaaaa" stroke="none" />
</svg>