<?xml version="1.0" encoding="utf-8"?>
<svg version="1.1" xmlns:xlink="http://www.w3.org/1999/xlink" width="40px" height="40px" viewBox="132 790.5  40 40" xmlns="http://www.w3.org/2000/svg">
  <path d="M 152 791.5  C 162.64 791.5  171 799.86  171 810.5  C 171 821.14  162.64 829.5  152 829.5  C 141.36 829.5  133 821.14  133 810.5  C 133 799.86  141.36 791.5  152 791.5  Z " fill-rule="nonzero" fill="#f2f2f2" stroke="none" />
  <path d="M 152 791.5  C 162.64 791.5  171 799.86  171 810.5  C 171 821.14  162.64 829.5  152 829.5  C 141.36 829.5  133 821.14  133 810.5  C 133 799.86  141.36 791.5  152 791.5  Z " stroke-width="2" stroke="#aaaaaa" fill="none" />
  <path d="M 152 820.5  C 146.4 820.5  142 816.1  142 810.5  C 142 804.9  146.4 800.5  152 800.5  C 157.6 800.5  162 804.9  162 810.5  C 162 816.1  157.6 820.5  152 820.5  " fill-rule="nonzero" fill="#aaaaaa" stroke="none" />
</svg>