<?xml version="1.0" encoding="utf-8"?>
<svg version="1.1" xmlns:xlink="http://www.w3.org/1999/xlink" width="40px" height="40px" viewBox="130 675.5  40 40" xmlns="http://www.w3.org/2000/svg">
  <path d="M 150 676.5  C 160.64 676.5  169 684.86  169 695.5  C 169 706.14  160.64 714.5  150 714.5  C 139.36 714.5  131 706.14  131 695.5  C 131 684.86  139.36 676.5  150 676.5  Z " fill-rule="nonzero" fill="#f2f2f2" stroke="none" />
  <path d="M 150 676.5  C 160.64 676.5  169 684.86  169 695.5  C 169 706.14  160.64 714.5  150 714.5  C 139.36 714.5  131 706.14  131 695.5  C 131 684.86  139.36 676.5  150 676.5  Z " stroke-width="2" stroke="#aaaaaa" fill="none" />
  <path d="M 150 705.5  C 144.4 705.5  140 701.1  140 695.5  C 140 689.9  144.4 685.5  150 685.5  C 155.6 685.5  160 689.9  160 695.5  C 160 701.1  155.6 705.5  150 705.5  " fill-rule="nonzero" fill="#aaaaaa" stroke="none" />
</svg>