<?xml version="1.0" encoding="utf-8"?>
<svg version="1.1" xmlns:xlink="http://www.w3.org/1999/xlink" width="40px" height="40px" viewBox="130 792.5  40 40" xmlns="http://www.w3.org/2000/svg">
  <path d="M 150 793.5  C 160.64 793.5  169 801.86  169 812.5  C 169 823.14  160.64 831.5  150 831.5  C 139.36 831.5  131 823.14  131 812.5  C 131 801.86  139.36 793.5  150 793.5  Z " fill-rule="nonzero" fill="#f2f2f2" stroke="none" />
  <path d="M 150 793.5  C 160.64 793.5  169 801.86  169 812.5  C 169 823.14  160.64 831.5  150 831.5  C 139.36 831.5  131 823.14  131 812.5  C 131 801.86  139.36 793.5  150 793.5  Z " stroke-width="2" stroke="#aaaaaa" fill="none" />
  <path d="M 150 822.5  C 144.4 822.5  140 818.1  140 812.5  C 140 806.9  144.4 802.5  150 802.5  C 155.6 802.5  160 806.9  160 812.5  C 160 818.1  155.6 822.5  150 822.5  " fill-rule="nonzero" fill="#aaaaaa" stroke="none" />
</svg>