<?xml version="1.0" encoding="utf-8"?>
<svg version="1.1" xmlns:xlink="http://www.w3.org/1999/xlink" width="40px" height="40px" viewBox="130 1027.5  40 40" xmlns="http://www.w3.org/2000/svg">
  <path d="M 150 1028.5  C 160.64 1028.5  169 1036.86  169 1047.5  C 169 1058.14  160.64 1066.5  150 1066.5  C 139.36 1066.5  131 1058.14  131 1047.5  C 131 1036.86  139.36 1028.5  150 1028.5  Z " fill-rule="nonzero" fill="#f2f2f2" stroke="none" />
  <path d="M 150 1028.5  C 160.64 1028.5  169 1036.86  169 1047.5  C 169 1058.14  160.64 1066.5  150 1066.5  C 139.36 1066.5  131 1058.14  131 1047.5  C 131 1036.86  139.36 1028.5  150 1028.5  Z " stroke-width="2" stroke="#aaaaaa" fill="none" />
  <path d="M 150 1057.5  C 144.4 1057.5  140 1053.1  140 1047.5  C 140 1041.9  144.4 1037.5  150 1037.5  C 155.6 1037.5  160 1041.9  160 1047.5  C 160 1053.1  155.6 1057.5  150 1057.5  " fill-rule="nonzero" fill="#aaaaaa" stroke="none" />
</svg>